<svg width="20" height="21" viewBox="0 0 20 21" fill="none" xmlns="http://www.w3.org/2000/svg">
<g id="Bank">
<path id="Vector" d="M1.875 8.50498H3.75V13.505H2.5C2.33424 13.505 2.17527 13.5708 2.05806 13.688C1.94085 13.8053 1.875 13.9642 1.875 14.13C1.875 14.2957 1.94085 14.4547 2.05806 14.5719C2.17527 14.6891 2.33424 14.755 2.5 14.755H17.5C17.6658 14.755 17.8247 14.6891 17.9419 14.5719C18.0592 14.4547 18.125 14.2957 18.125 14.13C18.125 13.9642 18.0592 13.8053 17.9419 13.688C17.8247 13.5708 17.6658 13.505 17.5 13.505H16.25V8.50498H18.125C18.261 8.50485 18.3932 8.46036 18.5016 8.37827C18.6101 8.29619 18.6887 8.18098 18.7258 8.05013C18.7628 7.91928 18.7561 7.77992 18.7068 7.6532C18.6574 7.52648 18.5681 7.41931 18.4523 7.34795L10.3273 2.34795C10.2289 2.28742 10.1156 2.25537 10 2.25537C9.88442 2.25537 9.77111 2.28742 9.67266 2.34795L1.54766 7.34795C1.4319 7.41931 1.34257 7.52648 1.29323 7.6532C1.24388 7.77992 1.23722 7.91928 1.27424 8.05013C1.31126 8.18098 1.38994 8.29619 1.49836 8.37827C1.60678 8.46036 1.73901 8.50485 1.875 8.50498ZM5 8.50498H7.5V13.505H5V8.50498ZM11.25 8.50498V13.505H8.75V8.50498H11.25ZM15 13.505H12.5V8.50498H15V13.505ZM10 3.61358L15.9172 7.25498H4.08281L10 3.61358ZM19.375 16.63C19.375 16.7957 19.3092 16.9547 19.1919 17.0719C19.0747 17.1891 18.9158 17.255 18.75 17.255H1.25C1.08424 17.255 0.925268 17.1891 0.808058 17.0719C0.690848 16.9547 0.625 16.7957 0.625 16.63C0.625 16.4642 0.690848 16.3053 0.808058 16.188C0.925268 16.0708 1.08424 16.005 1.25 16.005H18.75C18.9158 16.005 19.0747 16.0708 19.1919 16.188C19.3092 16.3053 19.375 16.4642 19.375 16.63Z" fill="white"/>
</g>
</svg>
