<svg width="254" height="254" viewBox="0 0 254 254" fill="none" xmlns="http://www.w3.org/2000/svg">
<g id="Icon" opacity="0.04">
<path id="Vector" d="M42.842 127C46.2058 129.767 48.9163 133.243 50.7795 137.18C55.542 147.003 55.542 159.008 55.542 170.657C55.542 194.777 56.5342 206.375 79.3545 206.375C81.4596 206.375 83.4786 207.212 84.9671 208.7C86.4557 210.189 87.292 212.208 87.292 214.313C87.292 216.418 86.4557 218.437 84.9671 219.926C83.4786 221.414 81.4596 222.25 79.3545 222.25C62.0111 222.25 50.2636 216.158 44.4295 204.133C39.667 194.31 39.667 182.305 39.667 170.657C39.667 146.537 38.6748 134.938 15.8545 134.938C13.7493 134.938 11.7304 134.102 10.2418 132.613C8.75326 131.125 7.91699 129.106 7.91699 127C7.91699 124.895 8.75326 122.876 10.2418 121.388C11.7304 119.899 13.7493 119.063 15.8545 119.063C38.6748 119.063 39.667 107.464 39.667 83.3442C39.667 71.7158 39.667 59.6905 44.4295 49.8678C50.2834 37.8425 62.0309 31.7505 79.3743 31.7505C81.4795 31.7505 83.4984 32.5868 84.987 34.0753C86.4756 35.5639 87.3118 37.5828 87.3118 39.688C87.3118 41.7931 86.4756 43.8121 84.987 45.3006C83.4984 46.7892 81.4795 47.6255 79.3743 47.6255C56.554 47.6255 55.5618 59.2242 55.5618 83.3442C55.5618 94.9727 55.5618 106.998 50.7993 116.821C48.9304 120.759 46.213 124.236 42.842 127ZM238.124 119.063C215.304 119.063 214.312 107.464 214.312 83.3442C214.312 71.7158 214.312 59.6905 209.549 49.8678C203.715 37.8425 191.968 31.7505 174.624 31.7505C172.519 31.7505 170.5 32.5868 169.012 34.0753C167.523 35.5639 166.687 37.5828 166.687 39.688C166.687 41.7931 167.523 43.8121 169.012 45.3006C170.5 46.7892 172.519 47.6255 174.624 47.6255C197.445 47.6255 198.437 59.2242 198.437 83.3442C198.437 94.9727 198.437 106.998 203.199 116.821C205.063 120.757 207.773 124.234 211.137 127C207.773 129.767 205.063 133.243 203.199 137.18C198.437 147.003 198.437 159.008 198.437 170.657C198.437 194.777 197.445 206.375 174.624 206.375C172.519 206.375 170.5 207.212 169.012 208.7C167.523 210.189 166.687 212.208 166.687 214.313C166.687 216.418 167.523 218.437 169.012 219.926C170.5 221.414 172.519 222.25 174.624 222.25C191.968 222.25 203.715 216.158 209.549 204.133C214.312 194.31 214.312 182.305 214.312 170.657C214.312 146.537 215.304 134.938 238.124 134.938C240.229 134.938 242.248 134.102 243.737 132.613C245.226 131.125 246.062 129.106 246.062 127C246.062 124.895 245.226 122.876 243.737 121.388C242.248 119.899 240.229 119.063 238.124 119.063Z" fill="#0450A0"/>
</g>
</svg>
