<svg width="20" height="21" viewBox="0 0 20 21" fill="none" xmlns="http://www.w3.org/2000/svg">
<path d="M18.75 16.63H17.5V7.87996C17.5 7.54844 17.3683 7.2305 17.1339 6.99608C16.8995 6.76166 16.5815 6.62996 16.25 6.62996H11.25V2.87996C11.2501 2.65361 11.1888 2.43146 11.0726 2.23723C10.9563 2.043 10.7895 1.88398 10.59 1.77714C10.3904 1.67031 10.1656 1.61966 9.93951 1.63062C9.71342 1.64157 9.49454 1.71371 9.30625 1.83934L3.05625 6.00496C2.8848 6.11935 2.74429 6.27437 2.64724 6.4562C2.55019 6.63803 2.49961 6.84104 2.5 7.04715V16.63H1.25C1.08424 16.63 0.925268 16.6958 0.808058 16.813C0.690848 16.9302 0.625 17.0892 0.625 17.255C0.625 17.4207 0.690848 17.5797 0.808058 17.6969C0.925268 17.8141 1.08424 17.88 1.25 17.88H18.75C18.9158 17.88 19.0747 17.8141 19.1919 17.6969C19.3092 17.5797 19.375 17.4207 19.375 17.255C19.375 17.0892 19.3092 16.9302 19.1919 16.813C19.0747 16.6958 18.9158 16.63 18.75 16.63ZM16.25 7.87996V16.63H11.25V7.87996H16.25ZM3.75 7.04715L10 2.87996V16.63H3.75V7.04715ZM8.75 9.12996V10.38C8.75 10.5457 8.68415 10.7047 8.56694 10.8219C8.44973 10.9391 8.29076 11.005 8.125 11.005C7.95924 11.005 7.80027 10.9391 7.68306 10.8219C7.56585 10.7047 7.5 10.5457 7.5 10.38V9.12996C7.5 8.9642 7.56585 8.80523 7.68306 8.68802C7.80027 8.57081 7.95924 8.50496 8.125 8.50496C8.29076 8.50496 8.44973 8.57081 8.56694 8.68802C8.68415 8.80523 8.75 8.9642 8.75 9.12996ZM6.25 9.12996V10.38C6.25 10.5457 6.18415 10.7047 6.06694 10.8219C5.94973 10.9391 5.79076 11.005 5.625 11.005C5.45924 11.005 5.30027 10.9391 5.18306 10.8219C5.06585 10.7047 5 10.5457 5 10.38V9.12996C5 8.9642 5.06585 8.80523 5.18306 8.68802C5.30027 8.57081 5.45924 8.50496 5.625 8.50496C5.79076 8.50496 5.94973 8.57081 6.06694 8.68802C6.18415 8.80523 6.25 8.9642 6.25 9.12996ZM6.25 13.505V14.755C6.25 14.9207 6.18415 15.0797 6.06694 15.1969C5.94973 15.3141 5.79076 15.38 5.625 15.38C5.45924 15.38 5.30027 15.3141 5.18306 15.1969C5.06585 15.0797 5 14.9207 5 14.755V13.505C5 13.3392 5.06585 13.1802 5.18306 13.063C5.30027 12.9458 5.45924 12.88 5.625 12.88C5.79076 12.88 5.94973 12.9458 6.06694 13.063C6.18415 13.1802 6.25 13.3392 6.25 13.505ZM8.75 13.505V14.755C8.75 14.9207 8.68415 15.0797 8.56694 15.1969C8.44973 15.3141 8.29076 15.38 8.125 15.38C7.95924 15.38 7.80027 15.3141 7.68306 15.1969C7.56585 15.0797 7.5 14.9207 7.5 14.755V13.505C7.5 13.3392 7.56585 13.1802 7.68306 13.063C7.80027 12.9458 7.95924 12.88 8.125 12.88C8.29076 12.88 8.44973 12.9458 8.56694 13.063C8.68415 13.1802 8.75 13.3392 8.75 13.505Z" fill="white"/>
</svg>
