<svg width="20" height="21" viewBox="0 0 20 21" fill="none" xmlns="http://www.w3.org/2000/svg">
<g id="Calculator">
<path id="Vector" d="M6.25 9.75488H13.75C13.9158 9.75488 14.0747 9.68903 14.1919 9.57182C14.3092 9.45461 14.375 9.29564 14.375 9.12988V5.37988C14.375 5.21412 14.3092 5.05515 14.1919 4.93794C14.0747 4.82073 13.9158 4.75488 13.75 4.75488H6.25C6.08424 4.75488 5.92527 4.82073 5.80806 4.93794C5.69085 5.05515 5.625 5.21412 5.625 5.37988V9.12988C5.625 9.29564 5.69085 9.45461 5.80806 9.57182C5.92527 9.68903 6.08424 9.75488 6.25 9.75488ZM6.875 6.00488H13.125V8.50488H6.875V6.00488ZM15.625 2.25488H4.375C4.04348 2.25488 3.72554 2.38658 3.49112 2.621C3.2567 2.85542 3.125 3.17336 3.125 3.50488V17.2549C3.125 17.5864 3.2567 17.9043 3.49112 18.1388C3.72554 18.3732 4.04348 18.5049 4.375 18.5049H15.625C15.9565 18.5049 16.2745 18.3732 16.5089 18.1388C16.7433 17.9043 16.875 17.5864 16.875 17.2549V3.50488C16.875 3.17336 16.7433 2.85542 16.5089 2.621C16.2745 2.38658 15.9565 2.25488 15.625 2.25488ZM15.625 17.2549H4.375V3.50488H15.625V17.2549ZM7.8125 11.9424C7.8125 12.1278 7.75752 12.3091 7.6545 12.4632C7.55149 12.6174 7.40507 12.7376 7.23377 12.8085C7.06246 12.8795 6.87396 12.898 6.6921 12.8619C6.51025 12.8257 6.3432 12.7364 6.21209 12.6053C6.08098 12.4742 5.99169 12.3071 5.95551 12.1253C5.91934 11.9434 5.93791 11.7549 6.00886 11.5836C6.07982 11.4123 6.19998 11.2659 6.35415 11.1629C6.50832 11.0599 6.68958 11.0049 6.875 11.0049C7.12364 11.0049 7.3621 11.1037 7.53791 11.2795C7.71373 11.4553 7.8125 11.6937 7.8125 11.9424ZM10.9375 11.9424C10.9375 12.1278 10.8825 12.3091 10.7795 12.4632C10.6765 12.6174 10.5301 12.7376 10.3588 12.8085C10.1875 12.8795 9.99896 12.898 9.8171 12.8619C9.63525 12.8257 9.4682 12.7364 9.33709 12.6053C9.20598 12.4742 9.11669 12.3071 9.08051 12.1253C9.04434 11.9434 9.06291 11.7549 9.13386 11.5836C9.20482 11.4123 9.32498 11.2659 9.47915 11.1629C9.63332 11.0599 9.81458 11.0049 10 11.0049C10.2486 11.0049 10.4871 11.1037 10.6629 11.2795C10.8387 11.4553 10.9375 11.6937 10.9375 11.9424ZM14.0625 11.9424C14.0625 12.1278 14.0075 12.3091 13.9045 12.4632C13.8015 12.6174 13.6551 12.7376 13.4838 12.8085C13.3125 12.8795 13.124 12.898 12.9421 12.8619C12.7602 12.8257 12.5932 12.7364 12.4621 12.6053C12.331 12.4742 12.2417 12.3071 12.2055 12.1253C12.1693 11.9434 12.1879 11.7549 12.2589 11.5836C12.3298 11.4123 12.45 11.2659 12.6042 11.1629C12.7583 11.0599 12.9396 11.0049 13.125 11.0049C13.3736 11.0049 13.6121 11.1037 13.7879 11.2795C13.9637 11.4553 14.0625 11.6937 14.0625 11.9424ZM7.8125 15.0674C7.8125 15.2528 7.75752 15.4341 7.6545 15.5882C7.55149 15.7424 7.40507 15.8626 7.23377 15.9335C7.06246 16.0045 6.87396 16.023 6.6921 15.9869C6.51025 15.9507 6.3432 15.8614 6.21209 15.7303C6.08098 15.5992 5.99169 15.4321 5.95551 15.2503C5.91934 15.0684 5.93791 14.8799 6.00886 14.7086C6.07982 14.5373 6.19998 14.3909 6.35415 14.2879C6.50832 14.1849 6.68958 14.1299 6.875 14.1299C7.12364 14.1299 7.3621 14.2287 7.53791 14.4045C7.71373 14.5803 7.8125 14.8187 7.8125 15.0674ZM10.9375 15.0674C10.9375 15.2528 10.8825 15.4341 10.7795 15.5882C10.6765 15.7424 10.5301 15.8626 10.3588 15.9335C10.1875 16.0045 9.99896 16.023 9.8171 15.9869C9.63525 15.9507 9.4682 15.8614 9.33709 15.7303C9.20598 15.5992 9.11669 15.4321 9.08051 15.2503C9.04434 15.0684 9.06291 14.8799 9.13386 14.7086C9.20482 14.5373 9.32498 14.3909 9.47915 14.2879C9.63332 14.1849 9.81458 14.1299 10 14.1299C10.2486 14.1299 10.4871 14.2287 10.6629 14.4045C10.8387 14.5803 10.9375 14.8187 10.9375 15.0674ZM14.0625 15.0674C14.0625 15.2528 14.0075 15.4341 13.9045 15.5882C13.8015 15.7424 13.6551 15.8626 13.4838 15.9335C13.3125 16.0045 13.124 16.023 12.9421 15.9869C12.7602 15.9507 12.5932 15.8614 12.4621 15.7303C12.331 15.5992 12.2417 15.4321 12.2055 15.2503C12.1693 15.0684 12.1879 14.8799 12.2589 14.7086C12.3298 14.5373 12.45 14.3909 12.6042 14.2879C12.7583 14.1849 12.9396 14.1299 13.125 14.1299C13.3736 14.1299 13.6121 14.2287 13.7879 14.4045C13.9637 14.5803 14.0625 14.8187 14.0625 15.0674Z" fill="white"/>
</g>
</svg>
