<svg width="20" height="20" viewBox="0 0 20 20" fill="none" xmlns="http://www.w3.org/2000/svg">
<g id="ChartDonut">
<path id="Vector" d="M10.7335 1.86972C10.5608 1.85466 10.3869 1.87567 10.2228 1.93142C10.0587 1.98716 9.90801 2.07642 9.78025 2.19353C9.65249 2.31063 9.55048 2.45303 9.4807 2.61166C9.41091 2.7703 9.37488 2.94172 9.37489 3.11503V6.29237C9.37273 6.5872 9.47577 6.87314 9.6655 7.09881C9.85524 7.32449 10.1192 7.47511 10.41 7.52362C10.8747 7.60158 11.3079 7.80925 11.6596 8.12271C12.0114 8.43616 12.2674 8.84264 12.3982 9.29528C12.5289 9.74792 12.5291 10.2283 12.3987 10.681C12.2684 11.1338 12.0127 11.5405 11.6612 11.8542C11.3097 12.168 10.8767 12.376 10.4121 12.4544C9.94751 12.5327 9.47023 12.4782 9.03529 12.297C8.60035 12.1159 8.22544 11.8156 7.95378 11.4306C7.68213 11.0457 7.52478 10.5918 7.49989 10.1213C7.46785 9.47909 7.5991 8.9494 7.89051 8.53847C8.06178 8.29956 8.14253 8.00755 8.11834 7.7146C8.09416 7.42164 7.96661 7.14683 7.75848 6.93925L5.60067 4.73065C5.47767 4.60765 5.33036 4.51167 5.16814 4.44886C5.00593 4.38605 4.8324 4.35778 4.65864 4.36587C4.48488 4.37396 4.31472 4.41822 4.15905 4.49584C4.00337 4.57345 3.86561 4.68269 3.75457 4.81659C2.45221 6.37752 1.78493 8.37138 1.88538 10.4018C1.98584 12.4322 2.84668 14.3504 4.29676 15.7752C5.81301 17.2795 7.86402 18.121 9.99989 18.115H10.1163C12.2292 18.0791 14.2455 17.2237 15.7397 15.7293C17.2339 14.235 18.0891 12.2186 18.1249 10.1057C18.1835 5.86347 14.9366 2.24628 10.7335 1.86972ZM4.71239 5.61034L6.86942 7.81269V7.81737C6.54923 8.27685 6.34817 8.80865 6.28426 9.36503H3.15301C3.27818 7.98384 3.82224 6.67383 4.71239 5.61034ZM3.15379 10.615H6.30223C6.43184 11.383 6.79733 12.0915 7.34794 12.6422C7.89856 13.193 8.60699 13.5587 9.37489 13.6885V16.8369C7.77414 16.6907 6.27524 15.9882 5.1387 14.8515C4.00215 13.7148 3.29983 12.2158 3.15379 10.615ZM14.8546 14.8447C13.7225 15.9847 12.2249 16.6892 10.6249 16.8346V13.6885C11.3492 13.5679 12.0215 13.2354 12.5569 12.733C13.0688 12.2561 13.4371 11.6455 13.6201 10.9703C13.8031 10.295 13.7936 9.58203 13.5926 8.91192C13.3916 8.2418 13.0071 7.64127 12.4827 7.17822C11.9583 6.71516 11.3147 6.40805 10.6249 6.29159V3.11503C14.1811 3.43378 16.9272 6.49628 16.8749 10.0877C16.8503 11.8767 16.1249 13.5848 14.8546 14.8447Z" fill="white"/>
</g>
</svg>
