<svg width="20" height="20" viewBox="0 0 20 20" fill="none" xmlns="http://www.w3.org/2000/svg">
<g id="Coins">
<path id="Vector" d="M14.375 6.98765V6.55249C14.375 4.59312 11.4195 3.11499 7.5 3.11499C3.58047 3.11499 0.625 4.59312 0.625 6.55249V9.67749C0.625 11.3095 2.67578 12.6064 5.625 12.9947V13.4275C5.625 15.3869 8.58047 16.865 12.5 16.865C16.4195 16.865 19.375 15.3869 19.375 13.4275V10.3025C19.375 8.6853 17.3891 7.38687 14.375 6.98765ZM18.125 10.3025C18.125 11.3353 15.7195 12.49 12.5 12.49C12.2086 12.49 11.9195 12.4798 11.6344 12.4611C13.3195 11.847 14.375 10.8494 14.375 9.67749V8.25093C16.7086 8.59858 18.125 9.54233 18.125 10.3025ZM5.625 11.7283V9.86968C6.2467 9.95069 6.87304 9.99088 7.5 9.98999C8.12696 9.99088 8.7533 9.95069 9.375 9.86968V11.7283C8.75422 11.82 8.12751 11.8657 7.5 11.865C6.87249 11.8657 6.24578 11.82 5.625 11.7283ZM13.125 8.57827V9.67749C13.125 10.333 12.1555 11.0369 10.625 11.4642V9.63843C11.6336 9.3939 12.4875 9.02983 13.125 8.57827ZM7.5 4.36499C10.7195 4.36499 13.125 5.51968 13.125 6.55249C13.125 7.5853 10.7195 8.73999 7.5 8.73999C4.28047 8.73999 1.875 7.5853 1.875 6.55249C1.875 5.51968 4.28047 4.36499 7.5 4.36499ZM1.875 9.67749V8.57827C2.5125 9.02983 3.36641 9.3939 4.375 9.63843V11.4642C2.84453 11.0369 1.875 10.333 1.875 9.67749ZM6.875 13.4275V13.1017C7.08047 13.1095 7.28828 13.115 7.5 13.115C7.80312 13.115 8.09922 13.1048 8.38984 13.0876C8.7127 13.2032 9.04157 13.3013 9.375 13.3814V15.2142C7.84453 14.7869 6.875 14.083 6.875 13.4275ZM10.625 15.4783V13.615C11.2465 13.6985 11.8729 13.7403 12.5 13.74C13.127 13.7409 13.7533 13.7007 14.375 13.6197V15.4783C13.1316 15.6606 11.8684 15.6606 10.625 15.4783ZM15.625 15.2142V13.3884C16.6336 13.1439 17.4875 12.7798 18.125 12.3283V13.4275C18.125 14.083 17.1555 14.7869 15.625 15.2142Z" fill="white"/>
</g>
</svg>
