<svg width="24" height="24" viewBox="0 0 24 24" fill="none" xmlns="http://www.w3.org/2000/svg">
<g id="Component 1">
<path id="Vector" d="M23.2501 7.50003C23.2519 6.87904 23.0335 6.27753 22.6336 5.80244C22.2337 5.32735 21.6783 5.00947 21.0661 4.90534C20.4539 4.80121 19.8246 4.91757 19.2902 5.23373C18.7557 5.54989 18.3507 6.04535 18.1471 6.63203C18.0116 7.02005 17.969 7.43446 18.0229 7.84192C18.0767 8.24939 18.2254 8.63853 18.4571 8.97803L15.9461 12.072L13.6871 6.88203C14.0991 6.5354 14.3945 6.07047 14.5333 5.55027C14.6722 5.03008 14.6477 4.47977 14.4632 3.97396C14.2787 3.46815 13.9431 3.0313 13.502 2.72264C13.0609 2.41397 12.5355 2.24841 11.9971 2.24841C11.4587 2.24841 10.9333 2.41397 10.4922 2.72264C10.051 3.0313 9.71548 3.46815 9.531 3.97396C9.34651 4.47977 9.32203 5.03008 9.46085 5.55027C9.59968 6.07047 9.89511 6.5354 10.3071 6.88203L8.05409 12.069L5.54209 8.97603C5.86492 8.50341 6.02444 7.93824 5.99635 7.36658C5.96826 6.79492 5.75411 6.24811 5.3865 5.80942C5.01889 5.37073 4.51798 5.06421 3.96005 4.93654C3.40212 4.80887 2.81776 4.86705 2.29595 5.10222C1.77415 5.33739 1.3435 5.73665 1.06961 6.23921C0.795709 6.74177 0.69357 7.32007 0.778745 7.88605C0.863921 8.45202 1.13174 8.97465 1.54142 9.37433C1.9511 9.77402 2.48018 10.0289 3.04809 10.1L4.40609 18.246C4.46456 18.5963 4.64538 18.9144 4.91639 19.1438C5.18739 19.3733 5.531 19.4991 5.88609 19.499H18.1141C18.4692 19.4991 18.8128 19.3733 19.0838 19.1438C19.3548 18.9144 19.5356 18.5963 19.5941 18.246L20.9501 10.103C21.5849 10.0238 22.169 9.71549 22.5925 9.23598C23.0161 8.75647 23.2499 8.1398 23.2501 7.50003ZM12.0001 3.75003C12.2985 3.75003 12.5846 3.86855 12.7956 4.07953C13.0066 4.29051 13.1251 4.57666 13.1251 4.87503C13.1251 5.17339 13.0066 5.45954 12.7956 5.67052C12.5846 5.8815 12.2985 6.00003 12.0001 6.00003C11.7017 6.00003 11.4156 5.8815 11.2046 5.67052C10.9936 5.45954 10.8751 5.17339 10.8751 4.87503C10.8751 4.57666 10.9936 4.29051 11.2046 4.07953C11.4156 3.86855 11.7017 3.75003 12.0001 3.75003ZM2.25009 7.50003C2.25009 7.20166 2.36862 6.91551 2.57959 6.70453C2.79057 6.49355 3.07672 6.37503 3.37509 6.37503C3.67346 6.37503 3.95961 6.49355 4.17058 6.70453C4.38156 6.91551 4.50009 7.20166 4.50009 7.50003C4.50009 7.79839 4.38156 8.08454 4.17058 8.29552C3.95961 8.5065 3.67346 8.62503 3.37509 8.62503C3.07672 8.62503 2.79057 8.5065 2.57959 8.29552C2.36862 8.08454 2.25009 7.79839 2.25009 7.50003ZM18.1141 18H5.88509L4.58009 10.174L7.66809 13.969C7.79001 14.1208 7.96615 14.2192 8.15929 14.2434C8.35242 14.2677 8.54743 14.2159 8.70309 14.099C8.80594 14.0209 8.88689 13.9176 8.93809 13.799L11.6851 7.48003C11.8941 7.50703 12.1051 7.50703 12.3151 7.48003L15.0621 13.8C15.1139 13.9178 15.1952 14.0203 15.2981 14.0976C15.401 14.1748 15.522 14.2244 15.6496 14.2413C15.7772 14.2583 15.907 14.2422 16.0265 14.1945C16.146 14.1468 16.2513 14.0692 16.3321 13.969L19.4191 10.17L18.1141 18ZM20.6241 8.62503C20.3257 8.62503 20.0396 8.5065 19.8286 8.29552C19.6176 8.08454 19.4991 7.79839 19.4991 7.50003C19.4991 7.20166 19.6176 6.91551 19.8286 6.70453C20.0396 6.49355 20.3257 6.37503 20.6241 6.37503C20.9225 6.37503 21.2086 6.49355 21.4196 6.70453C21.6306 6.91551 21.7491 7.20166 21.7491 7.50003C21.7491 7.79839 21.6306 8.08454 21.4196 8.29552C21.2086 8.5065 20.9225 8.62503 20.6241 8.62503Z" fill="#0450A0"/>
</g>
</svg>
