<svg width="20" height="21" viewBox="0 0 20 21" fill="none" xmlns="http://www.w3.org/2000/svg">
<g id="CurrencyCircleDollar">
<path id="Vector" d="M10 2.25488C8.39303 2.25488 6.82214 2.73141 5.486 3.62419C4.14985 4.51698 3.10844 5.78593 2.49348 7.27058C1.87852 8.75523 1.71762 10.3889 2.03112 11.965C2.34463 13.5411 3.11846 14.9888 4.25476 16.1251C5.39106 17.2614 6.8388 18.0353 8.4149 18.3488C9.99099 18.6623 11.6247 18.5014 13.1093 17.8864C14.594 17.2714 15.8629 16.23 16.7557 14.8939C17.6485 13.5577 18.125 11.9869 18.125 10.3799C18.1227 8.2257 17.266 6.16039 15.7427 4.63715C14.2195 3.11391 12.1542 2.25716 10 2.25488ZM10 17.2549C8.64026 17.2549 7.31105 16.8517 6.18046 16.0962C5.04987 15.3408 4.16868 14.2671 3.64833 13.0108C3.12798 11.7546 2.99183 10.3723 3.2571 9.03864C3.52238 7.70502 4.17716 6.48001 5.13864 5.51852C6.10013 4.55704 7.32514 3.90226 8.65876 3.63698C9.99238 3.37171 11.3747 3.50786 12.631 4.02821C13.8872 4.54856 14.9609 5.42975 15.7164 6.56034C16.4718 7.69093 16.875 9.02014 16.875 10.3799C16.8729 12.2026 16.1479 13.9501 14.8591 15.239C13.5702 16.5278 11.8227 17.2528 10 17.2549ZM13.125 11.9424C13.125 12.5225 12.8945 13.0789 12.4843 13.4892C12.0741 13.8994 11.5177 14.1299 10.9375 14.1299H10.625V14.7549C10.625 14.9206 10.5592 15.0796 10.4419 15.1968C10.3247 15.314 10.1658 15.3799 10 15.3799C9.83424 15.3799 9.67527 15.314 9.55806 15.1968C9.44085 15.0796 9.375 14.9206 9.375 14.7549V14.1299H8.125C7.95924 14.1299 7.80027 14.064 7.68306 13.9468C7.56585 13.8296 7.5 13.6706 7.5 13.5049C7.5 13.3391 7.56585 13.1802 7.68306 13.0629C7.80027 12.9457 7.95924 12.8799 8.125 12.8799H10.9375C11.1861 12.8799 11.4246 12.7811 11.6004 12.6053C11.7762 12.4295 11.875 12.191 11.875 11.9424C11.875 11.6937 11.7762 11.4553 11.6004 11.2795C11.4246 11.1037 11.1861 11.0049 10.9375 11.0049H9.0625C8.48234 11.0049 7.92594 10.7744 7.51571 10.3642C7.10547 9.95394 6.875 9.39754 6.875 8.81738C6.875 8.23722 7.10547 7.68082 7.51571 7.27059C7.92594 6.86035 8.48234 6.62988 9.0625 6.62988H9.375V6.00488C9.375 5.83912 9.44085 5.68015 9.55806 5.56294C9.67527 5.44573 9.83424 5.37988 10 5.37988C10.1658 5.37988 10.3247 5.44573 10.4419 5.56294C10.5592 5.68015 10.625 5.83912 10.625 6.00488V6.62988H11.875C12.0408 6.62988 12.1997 6.69573 12.3169 6.81294C12.4342 6.93015 12.5 7.08912 12.5 7.25488C12.5 7.42064 12.4342 7.57961 12.3169 7.69682C12.1997 7.81403 12.0408 7.87988 11.875 7.87988H9.0625C8.81386 7.87988 8.57541 7.97865 8.39959 8.15447C8.22378 8.33029 8.125 8.56874 8.125 8.81738C8.125 9.06602 8.22378 9.30448 8.39959 9.4803C8.57541 9.65611 8.81386 9.75488 9.0625 9.75488H10.9375C11.5177 9.75488 12.0741 9.98535 12.4843 10.3956C12.8945 10.8058 13.125 11.3622 13.125 11.9424Z" fill="white"/>
</g>
</svg>
