<svg width="67" height="49" viewBox="0 0 67 49" fill="none" xmlns="http://www.w3.org/2000/svg">
<g id="Frame 14">
<path id="Vector" d="M32.9093 1.09756C32.5144 1.94437 32.1962 2.43925 31.6917 3.01112C30.9785 3.82494 30.814 4.25385 30.7591 5.43057C30.7262 6.09042 30.7591 6.64031 30.836 6.88226C31.0115 7.42113 31.7793 8.13596 32.3936 8.33391C32.8105 8.47688 32.9203 8.57587 33.0958 8.97179C33.4687 9.80759 34.0501 10.6324 34.8728 11.4352C35.7944 12.359 35.8054 12.403 35.4542 13.8327C34.9277 15.9222 34.5548 16.736 34.1926 16.5931C33.9075 16.4831 33.8746 16.1972 34.127 15.9332C34.4121 15.6253 34.5768 15.0864 34.5768 14.4375C34.5768 13.7887 34.4121 13.5248 34.3134 13.9976C34.2805 14.1956 34.2475 14.5365 34.2475 14.7675C34.2475 15.2404 33.9732 15.5813 33.7977 15.3063C33.743 15.2184 33.6991 14.8005 33.6991 14.3826C33.6991 13.8217 33.6442 13.5248 33.4907 13.2718C32.9313 12.348 32.5034 11.4352 32.2181 10.5884C32.0536 10.0715 31.8452 9.57664 31.7573 9.48867C31.6038 9.34569 31.5928 9.37869 31.6587 9.81859C31.7573 10.4235 32.273 12.0181 32.7228 13.0299C33.4687 14.7455 33.1615 17.7368 32.2181 17.7368C31.7573 17.7368 31.7134 17.5498 31.7464 15.5923C31.7793 13.8657 31.7683 13.7557 31.5599 13.6017C31.3405 13.4368 31.3405 13.4588 31.3075 14.6025C31.2748 15.7242 31.2748 15.7572 31.0334 15.7572C30.836 15.7572 29.7719 15.0974 29.3111 14.6905C29.2781 14.6575 29.4319 14.4815 29.6403 14.2946C30.3752 13.6457 30.6275 13.2388 30.6275 12.7219C30.6275 12.469 30.5836 12.2161 30.5177 12.183C30.4081 12.1171 30.3642 12.2051 30.0789 12.9749C29.8268 13.6677 29.004 14.2726 28.6421 14.0526C28.4336 13.9207 28.6091 13.2938 29.1905 12.0621C29.717 10.9843 29.7499 10.8524 29.7499 10.0605C29.7499 9.18074 29.6513 8.8838 29.4099 8.96079C29.3111 8.99377 29.2781 9.20272 29.3001 9.67562C29.333 10.4784 29.026 11.5892 28.5432 12.436C27.9619 13.4478 27.7424 13.3378 27.3366 11.8091C27.1391 11.0503 26.7881 9.52165 26.7881 9.41167C26.7881 9.38969 26.9856 9.2797 27.2268 9.15874C28.8832 8.31193 29.4319 6.83826 28.6748 5.2876C28.236 4.39681 27.9399 4.11088 26.7332 3.49501C25.757 2.98912 25.5156 2.79119 24.8683 1.94437L24.5501 1.52646L24.4075 2.42826C24.3309 2.92314 24.1662 3.60499 24.0456 3.93491C23.3107 5.94747 23.3544 5.7385 23.4972 6.61831C23.7932 8.4549 24.4185 9.20272 25.8007 9.36769L26.404 9.43367L26.4919 10.2035C26.6344 11.5782 27.3585 13.7447 27.8411 14.2726C27.9619 14.4045 28.3458 14.7345 28.7187 15.0094C29.5634 15.6583 30.0462 16.2191 30.3313 16.846C30.5177 17.2749 30.5397 17.4729 30.474 18.3856C30.3203 20.5631 29.9034 22.3337 29.3989 23.0265C29.1246 23.3895 28.6311 23.5214 28.1922 23.3565C27.7205 23.1806 27.1171 22.4987 27.1171 22.1469C27.1171 21.6739 28.0605 20.4972 28.7187 20.1453C29.3221 19.8263 29.684 19.2985 29.7938 18.5836C29.8924 18.0007 29.7938 17.9348 29.6293 18.4846C29.4866 18.9905 28.9381 19.7164 28.7077 19.7164C28.4336 19.7164 28.4226 19.5074 28.6528 18.5506C28.8832 17.5828 28.9491 16.5271 28.7736 16.5271C28.6748 16.5271 28.5432 17.055 28.5432 17.4619C28.5432 17.7588 28.3019 17.9897 28.0934 17.9018C27.896 17.8248 27.4352 17.066 27.183 16.3841C26.9746 15.8232 26.7332 15.6693 26.8538 16.1642C27.1281 17.3299 27.5121 18.0337 28.0168 18.3417C28.1813 18.4406 28.3238 18.5946 28.3238 18.6936C28.3238 18.9465 27.7424 19.9253 27.2926 20.4312C26.7332 21.069 26.7332 21.069 26.3493 17.7588C26.2834 17.1979 26.1519 16.5161 26.064 16.2301C25.8775 15.6913 25.8995 15.4163 26.1738 14.7125C26.5358 13.7667 26.3054 12.524 25.6471 11.9191C25.2083 11.5012 25.1644 11.7431 25.5595 12.458C25.9764 13.2168 25.9871 13.3378 25.6801 13.3378C25.2962 13.3378 24.5721 12.7439 23.7713 11.7541C23.3324 11.2153 22.9924 10.8743 22.9705 10.9623C22.9048 11.2483 23.2668 11.7761 23.8921 12.315C25.746 13.8987 26.0311 14.2946 25.6362 14.8115C25.4607 15.0424 25.3948 15.0314 24.4844 14.6355C23.5299 14.2286 22.9156 13.8217 22.3891 13.2608C21.7199 12.546 21.0836 11.7431 21.0836 11.6222C21.0836 11.5672 21.2593 11.3582 21.4677 11.1493C21.9283 10.6984 22.3013 9.95056 22.3671 9.34569C22.4879 8.31193 21.6542 7.04721 20.5133 6.48634C19.9538 6.22241 18.6703 5.85949 18.2644 5.85949C18.1547 5.85949 17.7818 5.60654 17.4307 5.3096C17.0797 5.00166 16.7835 4.75973 16.7725 4.75973C16.7616 4.75973 16.7725 5.3426 16.7945 6.04644C16.8164 6.81626 16.7725 7.64108 16.6957 8.08098C16.5641 8.76282 16.5751 8.8728 16.8054 9.56564C17.4198 11.3912 18.3412 12.2161 19.6466 12.0951C19.9867 12.0621 20.3597 12.0071 20.4803 11.9741C20.6558 11.9191 20.7985 12.0401 21.2154 12.645C22.1697 14.0086 23.1679 14.8774 23.7822 14.8774C24.0675 14.8774 24.7695 15.4493 25.0877 15.9442C25.5922 16.747 25.6911 17.3629 25.6911 19.8043C25.6911 21.9269 25.7021 22.0588 25.9654 22.7077C26.1189 23.0816 26.2395 23.4224 26.2395 23.4775C26.2395 23.5214 26.0201 23.5656 25.746 23.5656C25.1317 23.5656 24.8903 23.3675 24.583 22.6087C24.4515 22.2898 24.3089 22.0259 24.254 22.0259C24.0675 22.0259 24.1552 23.0265 24.3746 23.4556C24.6709 24.0493 25.1207 24.2583 26.2066 24.3132C27.3256 24.3793 27.4571 24.4893 27.567 25.5341C27.6109 25.941 27.7315 26.5237 27.8301 26.8318C28.1373 27.7775 27.9179 28.1075 27.1391 27.8765C26.053 27.5465 24.4844 26.1939 23.9687 25.1272C23.6836 24.5552 23.6617 24.4013 23.6726 23.2905C23.6726 22.3447 23.7493 21.8388 23.9797 20.9811C24.3309 19.6724 24.4954 17.6268 24.265 17.3519C24.1881 17.2639 24.0346 17.1869 23.914 17.1869C23.7273 17.1869 23.7166 17.2419 23.7932 17.7588C23.8371 18.0777 23.8811 18.8036 23.8811 19.3534C23.8811 20.2442 23.8481 20.3982 23.6397 20.6072C23.2887 20.959 22.5756 20.937 22.2026 20.5521C21.9173 20.2772 21.9064 20.2112 21.9064 19.0785C21.9064 18.4296 21.9722 17.4619 22.0601 16.934C22.2246 15.8232 22.1587 15.3063 21.8297 14.9874C21.5664 14.7455 21.1934 14.6905 21.1934 14.8994C21.1934 14.9764 21.347 15.2624 21.5334 15.5373C21.8077 15.9442 21.8517 16.1092 21.8297 16.5821C21.8077 16.967 21.7419 17.1429 21.6322 17.1649C21.5444 17.1759 21.1824 16.912 20.8315 16.5821C20.228 16.0102 19.7015 15.6803 19.5699 15.8012C19.4931 15.8892 19.8002 16.2961 20.4803 17.022C21.0946 17.6598 21.5224 18.4186 21.5224 18.8475C21.5224 18.9685 21.4019 19.1115 21.2593 19.1775C21.0509 19.2764 20.8642 19.2325 20.228 18.9575C19.8002 18.7706 19.4163 18.6166 19.3614 18.6166C19.164 18.6166 18.802 17.8688 18.7361 17.2969C18.5935 16.1532 18.0231 14.5035 17.7269 14.3936C17.5295 14.3166 17.5185 14.2726 17.9353 15.3943C18.5058 16.879 18.6155 17.3739 18.4509 17.5718C18.2425 17.8138 17.6611 17.7698 17.2662 17.4729C16.8383 17.1539 16.6189 16.912 16.0924 16.1532L15.6865 15.5593L15.9717 15.1304C16.3337 14.5915 16.6189 13.2828 16.4873 12.8319C16.224 11.8971 15.7194 11.3252 14.7321 10.8524C14.1727 10.5884 14.052 10.5774 12.6479 10.5994C11.2547 10.6214 11.1121 10.6104 10.4758 10.3355C9.79567 10.0605 9.68597 10.0825 9.88344 10.4564C10.2893 11.2483 10.6623 12.557 10.6623 13.1728C10.6623 14.0856 11.7154 15.6143 12.6808 16.1092C13.2073 16.3841 14.2275 16.4171 14.8638 16.1862C15.2477 16.0542 15.2806 16.0542 15.4561 16.3071C15.9169 16.989 16.8603 17.7258 18.2864 18.5066C18.6484 18.7046 19.2627 19.0455 19.6576 19.2544C20.5462 19.7384 21.6103 20.5852 21.9283 21.058C22.3122 21.63 22.455 22.3228 22.3013 22.8726C22.2136 23.1806 22.1148 23.3456 21.9942 23.3456C21.8954 23.3456 21.3909 22.9055 20.8752 22.3667C20.0196 21.4759 19.888 21.377 19.4272 21.3219C18.9226 21.2451 18.5606 21.311 18.5606 21.4759C18.5606 21.52 18.8458 21.6739 19.1969 21.8059C19.6576 21.9927 20.0416 22.2788 20.6668 22.8946C21.1275 23.3565 21.6103 23.8185 21.7419 23.9283C21.8954 24.0603 21.9613 24.2254 21.9393 24.4233C21.9064 24.6982 21.8626 24.7201 21.1934 24.7972C20.1842 24.8962 18.9994 24.7313 18.8458 24.4784C18.78 24.3683 18.5167 23.7634 18.2535 23.1255C17.9902 22.4877 17.6062 21.6078 17.3868 21.168C16.7396 19.8593 16.4434 20.2662 16.959 21.762C17.2004 22.4767 17.2881 22.6967 17.6391 23.5105C17.8586 24.0273 17.9353 24.4452 17.8147 24.4452C17.5953 24.4452 16.8493 24.0825 16.608 23.8624C16.0924 23.3895 16.0266 23.1036 16.0595 21.6078L16.0814 20.2112L15.6207 19.3095C14.8418 17.7808 14.2056 16.857 13.8107 16.714C13.4816 16.5931 13.6022 16.857 14.5566 18.3087C15.0722 19.0895 15.5549 19.9473 15.6207 20.2222C15.7414 20.6731 15.7304 20.7282 15.522 20.948C15.2916 21.179 15.2806 21.179 14.4798 20.9921C14.041 20.8821 13.5254 20.7282 13.3499 20.6511C13.1634 20.5631 12.7795 20.4312 12.4833 20.3542L11.9568 20.2112L12.0226 19.5624C12.1432 18.1987 11.6935 17.2749 10.6513 16.692C10.1028 16.3841 9.98216 16.3621 9.01681 16.3731C8.17212 16.3841 7.86496 16.4391 7.37132 16.648C6.85575 16.868 6.60344 16.912 5.70391 16.901C5.11153 16.89 4.62885 16.923 4.62885 16.967C4.62885 17.011 4.73855 17.1319 4.85922 17.2529C5.17734 17.5388 6.01106 18.9795 6.2853 19.7164C6.54859 20.4202 6.6912 20.5962 7.42618 21.1351C8.16116 21.6849 8.99487 22.0588 9.45561 22.0478C9.98216 22.0478 11.0133 21.5749 11.3095 21.19L11.5508 20.8821L12.3955 21.168C12.8563 21.3329 13.4377 21.498 13.679 21.5419C14.5676 21.7069 15.2148 22.3886 15.5878 23.5875C15.8291 24.3132 16.4215 24.8633 17.3539 25.215C17.9792 25.446 19.8331 25.6441 21.3689 25.6551C22.5536 25.6551 22.8389 25.688 22.9595 25.831C23.0803 25.9849 23.0693 26.029 22.8938 26.161C22.7401 26.2708 22.3122 26.3149 21.292 26.3149C20.2061 26.3149 19.877 26.3478 19.7673 26.4798C19.5808 26.7108 20.1293 27.0187 21.0946 27.1948C21.7968 27.3267 21.9503 27.3267 22.5536 27.1506C23.9687 26.7328 24.2211 26.7987 24.7805 27.6675C25.2742 28.4264 25.8007 29.0642 26.7003 30.01C27.6766 31.0328 27.9838 31.6157 27.9948 32.4295C27.9948 33.7931 26.3603 35.0578 24.583 35.0578C23.7603 35.0578 23.3324 34.882 23.1022 34.431C22.8389 33.9141 22.9048 33.5401 23.3107 33.2984C23.4972 33.1884 23.7603 32.9793 23.8811 32.8364C24.0675 32.6273 24.2101 32.5834 24.7695 32.5834C25.3291 32.5834 25.4826 32.5395 25.735 32.3085C25.9871 32.0775 26.1409 31.5936 25.9544 31.5936C25.9215 31.5936 25.6801 31.7255 25.4058 31.8797C24.6489 32.3305 24.5501 32.2205 24.616 31.0108C24.6928 29.867 24.6599 29.7241 24.3636 29.7241C24.1442 29.7241 24.1005 29.856 23.9907 30.8239C23.8701 31.9236 23.8042 32.1216 23.4203 32.5724C22.9375 33.1442 22.6085 33.1664 22.3562 32.6495C22.1258 32.1436 21.9283 31.1977 22.0052 30.8898C22.0381 30.7579 22.3671 30.4059 22.7291 30.131C23.4422 29.5702 23.6507 29.2072 23.5519 28.7123C23.4532 28.2834 23.3434 28.3273 23.1679 28.8442C23.0913 29.0862 22.9375 29.3611 22.8279 29.4601C22.6415 29.6251 22.6085 29.6251 22.3562 29.4601C22.1807 29.3501 22.0491 29.1413 22.0052 28.8774C21.9064 28.3273 21.8297 28.2064 21.7309 28.4703C21.5773 28.8442 21.6322 29.1413 21.9064 29.5482C22.2356 30.0431 22.2466 30.23 21.9613 30.3839C21.7858 30.4829 21.6762 30.461 21.4238 30.2849C20.9411 29.9331 20.3487 29.2292 19.7015 28.2285C19.153 27.3706 18.3961 26.6447 18.067 26.6447C17.9902 26.6447 17.8476 26.5459 17.7379 26.4249C17.5295 26.1939 17.1345 26.1278 17.1345 26.3149C17.1345 26.3698 17.1784 26.4249 17.2223 26.4249C17.4198 26.4249 18.7471 27.6346 19.2298 28.2505C20.3377 29.6802 20.612 30.0319 20.7766 30.208C21.1056 30.571 21.3579 31.3518 21.2373 31.6816C21.1385 31.9565 21.0836 31.9785 20.4694 31.9785C19.6686 31.9785 18.9884 31.6597 18.2973 30.9779C17.705 30.3949 17.5075 29.977 17.3759 29.0093C17.321 28.5803 17.1674 28.0634 17.0468 27.8546C16.9371 27.6456 16.6957 27.0628 16.5312 26.5679C16.2021 25.6 15.7743 24.9843 15.2477 24.7091C14.787 24.4674 14.7431 24.5993 15.127 25.0831C15.9169 26.0729 16.2569 26.8647 15.884 26.8647C15.5549 26.8647 14.9735 26.3149 14.2933 25.347L13.5693 24.3352L13.5364 24.7972C13.4925 25.3911 13.4048 25.479 12.944 25.3802C12.6808 25.3251 12.3188 25.0282 11.6167 24.3132C10.8159 23.4775 10.6294 23.3456 10.4978 23.4556C10.2016 23.6975 10.3113 24.0934 10.8049 24.5882C11.2327 25.0282 12.0116 25.457 13.7887 26.2598C14.5456 26.6008 16.0924 27.6016 16.4434 27.9866C16.6409 28.1954 16.6738 28.3274 16.6189 28.6574C16.5422 29.1413 16.3886 29.1743 15.9059 28.7564C15.127 28.0966 14.5566 27.8985 13.0208 27.7336C11.4302 27.5685 11.2876 27.5136 11.0682 27.0516C10.8598 26.6228 10.5526 26.5018 10.5526 26.8428C10.5526 26.9528 10.6952 27.2716 10.8707 27.5465C11.145 27.9756 11.2656 28.0744 11.6167 28.1295C11.847 28.1624 12.209 28.2395 12.4175 28.2944C12.6259 28.3493 13.0537 28.4154 13.3499 28.4593C14.6444 28.6244 15.4561 28.9213 15.2258 29.1413C15.1161 29.2511 12.8892 29.2511 12.0555 29.1301C11.5618 29.0642 11.2547 28.9323 10.6842 28.5474C10.2783 28.2724 9.92732 28.0085 9.8944 27.9644C9.8615 27.9314 9.675 27.7995 9.47755 27.6785C9.13748 27.4806 9.11553 27.4477 9.19232 27.0847C9.58724 25.336 8.85226 23.6534 7.49198 23.1806C6.29628 22.7736 4.936 23.1916 3.58671 24.3793C3.21373 24.6982 2.44584 24.9952 1.9522 24.9952C1.32691 24.9952 1.28303 25.1601 1.79862 25.468C2.29226 25.7651 3.50992 26.8977 3.98163 27.4916C4.66177 28.3605 6.97642 28.9433 7.81012 28.4593C7.96369 28.3715 8.16116 28.2615 8.24893 28.2173C8.33667 28.1734 8.49026 28.0524 8.578 27.9424C8.73159 27.7446 8.76449 27.7446 9.2033 27.9756C9.71889 28.2285 10.2235 28.6903 10.2235 28.8993C10.2235 29.0972 9.79567 29.3501 9.30202 29.4272C8.72063 29.515 8.35861 29.779 8.35861 30.109C8.35861 30.4939 8.74255 30.472 9.15942 30.0761C9.45561 29.7902 9.51046 29.779 10.5307 29.8011C12.0664 29.8341 12.966 29.9441 12.966 30.087C12.966 30.1639 12.7356 30.3619 12.4504 30.5378C11.9897 30.8128 11.2656 30.9779 10.3113 31.0437C10.0919 31.0547 10.2564 31.2308 10.5855 31.3518C11.4302 31.6597 12.0335 31.5057 13.2402 30.6698C14.5456 29.768 15.0941 29.6251 15.9937 29.9331C16.7177 30.197 17.3978 30.8349 17.4965 31.3628C17.5843 31.7697 17.3649 32.4624 17.1126 32.6273C16.97 32.7154 16.7506 32.6495 16.1253 32.3415C14.8857 31.7367 13.8436 31.5387 13.8436 31.9126C13.8436 31.9785 14.1068 32.0995 14.414 32.1985C14.7321 32.2866 15.2038 32.4734 15.4671 32.6164C16.0595 32.9244 16.0485 33.1993 15.4342 33.4193C14.776 33.6501 14.0191 33.6062 13.2622 33.2984C12.8892 33.1554 12.2639 32.9793 11.8799 32.9244C11.496 32.8583 10.9365 32.7264 10.6294 32.6273C10.1138 32.4515 9.675 32.4624 8.88516 32.6495C8.67675 32.6934 8.578 32.6715 8.578 32.5944C8.578 32.3305 8.13922 31.5277 7.75528 31.0657C7.25065 30.4829 6.76798 30.2739 5.9233 30.2739C5.25414 30.2739 4.19006 30.5488 4.19006 30.7249C4.19006 30.7798 4.1352 30.8239 4.0694 30.8239C3.87192 30.8239 2.99434 31.8136 2.33614 32.7815C2.24838 32.9025 1.8425 33.1664 1.42564 33.3533C1.01975 33.5401 0.679688 33.7382 0.679688 33.7931C0.679688 33.8921 0.953935 34.0131 1.1843 34.0131C1.49146 34.0131 3.10404 34.7939 3.477 35.113C4.04745 35.6187 4.42041 35.7177 5.67098 35.7177C6.60344 35.7177 6.97642 35.6738 7.28357 35.5198C7.83206 35.2559 8.32571 34.629 8.5451 33.9031C8.65481 33.5733 8.78644 33.2652 8.85226 33.2213C9.12651 33.0233 9.94926 33.1333 11.869 33.6392C12.1981 33.7272 12.6698 33.8482 12.9111 33.9141C13.1525 33.9802 13.5035 34.0792 13.69 34.1341C13.8765 34.189 14.1836 34.2331 14.3701 34.2331C14.7979 34.2331 14.7979 34.3321 14.425 35.0139C14.2056 35.4318 14.0081 35.6077 13.5913 35.8277C13.0976 36.0697 12.8892 36.1026 11.8799 36.1026C11.2327 36.1026 10.3003 36.0257 9.78471 35.9377C9.01681 35.8057 8.83032 35.7947 8.70965 35.9157C8.5122 36.1246 8.88516 36.4326 9.47755 36.5536C10.1138 36.6746 11.7373 36.6746 12.7137 36.5426C13.3609 36.4546 13.6351 36.3556 14.2714 35.9377C14.6992 35.6628 15.0722 35.4428 15.1051 35.4428C15.2148 35.4428 15.1599 36.2016 15.0393 36.5095C14.6882 37.3674 14.5786 37.5323 14.1946 37.8403L13.7887 38.1701L14.0959 38.2472C14.5237 38.3572 14.8528 38.0272 15.2148 37.1144C15.5878 36.1907 15.6755 35.4538 15.489 34.882C15.3903 34.5851 15.3684 34.3761 15.4452 34.266C15.5 34.178 15.9169 33.9472 16.3666 33.7711C16.8164 33.5843 17.4307 33.3203 17.7159 33.1774C18.1328 32.9683 18.429 32.9134 19.0433 32.9134C19.7673 32.9134 19.866 32.9464 20.1951 33.2323C20.601 33.6062 20.9301 34.497 21.0399 35.5857C21.1275 36.4107 20.9301 36.9275 20.4913 37.0044C20.1074 37.0815 19.8112 36.8395 19.4931 36.2126C19.1859 35.6077 18.7581 35.2228 18.3851 35.2228C18.2425 35.2228 18.1218 35.2449 18.1218 35.2669C18.1218 35.2888 18.3741 35.5638 18.6703 35.8716C19.5369 36.7624 19.4272 37.0373 18.1876 37.0815C17.6172 37.1034 17.0797 37.3674 16.8054 37.7523C16.3557 38.3902 16.6519 38.577 17.2442 38.0382C17.7269 37.5984 18.2535 37.4223 19.0762 37.4223C20.261 37.4223 20.5571 37.9172 19.8002 38.6541C19.1091 39.3139 18.6703 39.4349 17.0577 39.3688C14.4579 39.27 12.9221 39.0171 11.9458 38.5221C11.0901 38.0933 10.6952 38.0272 10.1906 38.2472C9.47755 38.5441 9.65306 38.6431 11.0901 38.7861C11.4082 38.819 11.8032 38.929 11.9458 39.028L12.22 39.2039L11.9787 39.4569C11.8361 39.6108 11.507 39.7537 11.134 39.8308C10.2016 40.0177 10.1796 40.0067 9.98216 39.4239C9.76277 38.819 8.97293 37.9613 8.32571 37.6203C7.70042 37.3013 6.71312 37.3013 6.07689 37.6313C5.46257 37.9501 4.68371 38.72 4.4643 39.2478C4.36557 39.4898 4.16812 40.0508 4.01453 40.5126C3.79514 41.2275 3.67447 41.4254 3.12598 41.9423L2.50069 42.5362L3.65253 42.6131C4.27781 42.6572 5.2322 42.8002 5.75875 42.9321C6.71312 43.1851 6.73506 43.1851 7.44812 42.987C8.8413 42.6131 9.78471 41.9423 9.94924 41.1724C10.037 40.7546 10.1138 40.6997 11.1011 40.3916C11.5508 40.2597 12.2968 40.0177 12.7466 39.8638C13.9423 39.4569 15.2916 39.512 16.9809 40.0287C17.694 40.2487 18.067 40.5236 17.9792 40.7656C17.9134 40.9416 16.8383 41.5134 16.3228 41.6454C15.8511 41.7664 16.0046 41.9313 16.5751 41.9313C17.3759 41.9313 17.6282 41.7884 18.1438 41.0624C18.4838 40.5897 18.78 40.3257 19.1969 40.0947C19.526 39.9298 20.0416 39.5339 20.3487 39.2039C21.8844 37.5984 21.9393 37.5654 22.784 37.3234C23.0254 37.2464 23.7822 37.1254 24.4624 37.0485C26.2395 36.8285 28.1044 37.0705 28.1044 37.5103C28.1044 37.5984 27.9509 37.9282 27.7644 38.2253C27.1171 39.281 26.9856 39.9957 27.2377 41.1395C27.3915 41.8764 27.194 42.3713 26.6124 42.6462C26.064 42.9102 24.7368 42.8111 23.6068 42.4262C22.6744 42.1074 21.9832 42.0742 21.5115 42.3162C21.1934 42.4921 21.1715 42.7782 21.4895 42.6572C22.0271 42.4482 23.2777 43.2619 23.2777 43.812C23.2777 44.2738 23.0144 44.4057 22.0821 44.4057C21.3579 44.3947 21.1385 44.3398 20.4255 44.0098C19.9757 43.7898 19.3724 43.559 19.0872 43.482C18.5716 43.339 18.5497 43.339 17.9244 43.713C17.1236 44.1969 16.5531 44.3398 15.9498 44.2079C15.5988 44.1418 15.4452 44.0428 15.3245 43.7898C14.9625 43.097 14.3591 42.998 13.5474 43.4929C12.9879 43.8339 13.0757 44.0208 13.7887 44.0208H14.3811L14.4579 44.4167C14.5676 44.9887 14.3043 45.1975 13.2622 45.3626C12.3955 45.5056 12.2749 45.6156 12.7575 45.8574C13.0757 46.0225 13.5583 45.9564 14.5018 45.5934C15.6426 45.1646 16.3228 44.9777 17.7708 44.6806C18.5167 44.5377 19.7234 44.5377 19.9977 44.6806C20.1074 44.7467 20.2061 44.9007 20.2061 45.0326C20.2061 45.2526 20.1732 45.2636 19.2846 45.1975C18.3961 45.1316 18.3302 45.1426 17.6062 45.5056C17.2003 45.7144 16.7616 45.9564 16.6409 46.0444C16.4434 46.1984 16.4434 46.2093 16.6189 46.2203C16.7287 46.2203 17.4856 46.0993 18.2973 45.9454C19.1091 45.7915 20.0306 45.6705 20.3268 45.6705C20.7875 45.6705 20.8642 45.7034 20.8642 45.8905C20.8642 46.3413 19.5589 46.8911 16.3447 47.771C14.8857 48.1669 14.6992 48.2549 14.9406 48.4088C15.138 48.5408 15.5658 48.4639 16.4763 48.1559C17.343 47.848 18.1438 47.65 18.4948 47.65C19.0872 47.65 20.2171 47.1882 20.8095 46.7152C21.5115 46.1325 21.7528 46.0664 22.4221 46.2093C22.8938 46.3193 23.0144 46.2974 23.7932 45.9893C24.594 45.6595 24.7038 45.6485 25.713 45.6925C26.3054 45.7254 26.8209 45.7805 26.8648 45.8244C26.9087 45.8685 26.6893 46.1325 26.3823 46.4184C25.7787 46.9682 25.5813 47.276 25.5813 47.639C25.5813 48.0239 25.9215 47.9029 26.6673 47.2651C27.7534 46.3084 28.0605 46.1874 29.2454 46.2644C30.3752 46.3303 31.9328 46.5613 32.1413 46.6933C32.2181 46.7482 32.3497 46.9572 32.4375 47.1662C32.5581 47.4521 32.657 47.54 32.8654 47.54C33.3042 47.54 33.6991 47.3092 33.765 47.0011C33.9295 46.3193 34.0721 46.2203 34.9497 46.2203C35.7395 46.2203 35.7615 46.2313 36.0356 46.5943C36.3868 47.0453 37.0777 47.2651 38.1089 47.2541C38.8221 47.2431 39.8423 46.8911 39.8423 46.6603C39.8423 46.5284 39.1181 46.3303 38.6356 46.3303C38.4272 46.3303 38.0652 46.2974 37.8458 46.2644C37.363 46.1764 37.2972 45.9344 37.6593 45.6044C37.8785 45.4066 38.0652 45.3956 40.3577 45.4285L42.815 45.4615L42.9905 45.0216C43.3526 44.0979 44.1974 44.2298 46.0403 45.4724C47.543 46.4952 47.7515 46.5503 50.4721 46.5503C51.7993 46.5503 52.8964 46.5943 53.0719 46.6603C53.2364 46.7262 53.5656 46.9462 53.796 47.1551C54.2238 47.551 54.7613 47.672 54.7613 47.3861C54.7613 47.1992 54.3554 46.8692 53.2803 46.2093L52.5125 45.7364L51.2399 45.7585C50.1648 45.7915 49.9456 45.7585 49.8138 45.6044C49.6823 45.4505 49.7042 45.3956 49.9674 45.1646C50.1211 45.0326 50.483 44.8787 50.7574 44.8457C51.0315 44.8016 51.2509 44.7248 51.2509 44.6697C51.2509 44.4828 50.6585 44.3289 50.2307 44.3947C49.6274 44.4938 49.397 44.6697 49.1556 45.2526C48.8705 45.9015 48.5303 46.0664 47.8393 45.8905C47.576 45.8244 47.214 45.6375 47.0276 45.4724C46.7203 45.1865 45.4697 43.691 45.2832 43.3939C45.0309 42.9541 45.8538 42.5911 47.0825 42.5911C47.8393 42.5911 47.9599 42.3823 47.2907 42.2394C46.9397 42.1623 44.6579 42.2172 44.1754 42.3162C44.0546 42.3492 43.6158 42.6902 43.1989 43.0861C42.6395 43.6139 42.2995 43.8449 41.8936 43.9659C40.2262 44.4608 38.6356 43.7569 37.9224 42.1952C37.5715 41.4364 37.2425 40.0618 37.1436 39.0061C37.0777 38.3021 37.0997 38.1592 37.3521 37.6313C37.6811 36.9385 37.9554 36.5865 38.6356 35.9377C39.7544 34.871 40.4566 34.4531 41.5097 34.2441C42.3654 34.057 42.9138 34.2221 43.4952 34.8159C43.9779 35.3108 44.2301 35.8938 44.8774 38.0272C45.3711 39.6439 45.6891 40.0728 47.0932 40.9526C48.5303 41.8544 49.035 42.1403 50.4611 42.877C51.8652 43.592 52.8744 43.812 52.4576 43.3061C52.315 43.141 50.3623 42.1513 50.1758 42.1513C50.1211 42.1513 50.0003 42.0633 49.9017 41.9533C49.5725 41.5905 49.8687 41.4915 51.207 41.4915C52.6989 41.4915 52.9732 41.5905 53.9056 42.4811C54.6077 43.1631 54.9038 43.2619 54.9587 42.8551C54.9917 42.6243 54.6407 42.1623 54.2676 41.9642C54.0811 41.8544 54.0811 41.8213 54.2128 41.6564C54.5748 41.2166 55.4744 40.8097 56.3628 40.6665L56.8127 40.6007L56.8895 41.0405C56.9881 41.6454 57.5585 42.3713 58.2168 42.7011C58.6666 42.9211 58.9299 42.9761 59.6978 42.9761C60.5534 42.9761 60.707 42.9431 61.5627 42.5362C62.4511 42.1184 62.5389 42.0962 63.4605 42.1184C63.987 42.1293 64.4148 42.1074 64.4148 42.0523C64.4148 42.0084 64.2832 41.8544 64.1295 41.7003C63.647 41.2495 62.8572 40.1497 62.5719 39.523C62.2099 38.7421 61.6503 38.1921 60.7399 37.7523C58.8201 36.8175 57.1417 37.6642 56.8017 39.7428L56.7358 40.1387L55.913 40.2048C55.0683 40.2816 54.9258 40.3367 54.1689 40.8536C53.6423 41.2275 53.5546 41.2385 52.9293 40.8646C52.4356 40.5787 52.4246 40.5787 51.4703 40.6997C50.0662 40.8865 48.5852 40.8646 47.8723 40.6446C46.8521 40.3257 46.0621 39.4239 45.8209 38.3351C45.733 37.8843 45.8975 37.8623 46.5558 38.2472C48.2123 39.2259 49.0679 39.4459 50.4611 39.281C50.9875 39.2259 51.6677 39.149 51.964 39.1049C52.326 39.072 52.7319 39.1159 53.1158 39.2259C53.4338 39.3249 53.9166 39.402 54.1689 39.402C54.6187 39.402 56.0448 39.028 56.2203 38.8519C56.2752 38.808 55.6719 38.7531 54.8819 38.72C54.103 38.698 53.4121 38.6431 53.3681 38.588C53.3242 38.5441 53.4448 38.3682 53.6532 38.2031C54.1689 37.7852 53.8836 37.6862 52.9732 37.9833C51.3497 38.5111 50.7025 38.6321 50.7025 38.4121C50.7025 38.1702 51.0644 37.5764 51.3825 37.2903C51.7993 36.9166 52.337 36.8066 53.0279 36.9715C53.6095 37.1034 55.0685 37.1364 55.3536 37.0264C55.7376 36.8834 55.3536 36.7624 54.487 36.7624C53.9495 36.7624 53.5326 36.7185 53.4997 36.6415C53.3901 36.4765 53.4668 36.4326 54.0374 36.2897C54.5748 36.1467 54.7064 35.9597 54.3005 35.8938C53.9385 35.8387 52.6113 36.0916 51.9091 36.3556C51.2179 36.6085 50.5379 37.2464 50.0991 38.0711C49.8248 38.577 49.7479 38.6321 49.4189 38.6321C48.8156 38.6321 47.8393 38.0162 46.5887 36.8505C46.2705 36.5536 46.2705 36.5316 46.4242 36.2455C46.6436 35.8387 47.9819 34.9478 48.7277 34.7059C49.7919 34.3651 51.7666 34.4751 53.807 35.0139C54.0264 35.0688 54.7174 35.1459 55.3427 35.1898C56.3848 35.2449 56.5054 35.2779 57.043 35.6298C57.7779 36.1136 58.0193 35.9926 57.394 35.4538C56.9991 35.113 56.9332 35.0139 57.0321 34.8378C57.1417 34.651 57.8878 34.3431 58.2717 34.3431C58.3703 34.3431 58.6227 34.5851 58.8421 34.871C59.3358 35.5308 60.0158 35.8828 60.8056 35.8828C61.9246 35.8828 62.6925 35.5198 63.8664 34.409C64.5683 33.7601 64.7878 33.6392 65.8738 33.4082C66.2358 33.3313 66.2578 33.1774 65.9287 33.0674C65.5119 32.9464 64.0638 31.9236 63.5591 31.4177C62.9887 30.8349 62.6595 30.6478 61.7601 30.439C60.3889 30.12 59.5332 30.307 58.8531 31.0767C58.2497 31.7697 58.1181 32.1546 58.1948 33.1333L58.2607 33.9911L57.5258 34.1231C57.1197 34.189 56.5054 34.3431 56.1654 34.4641C55.5511 34.6729 55.0903 34.728 55.0903 34.618C55.0903 34.4641 55.4195 33.9362 55.6279 33.7492C55.924 33.4743 55.924 33.2433 55.606 33.2433C55.2987 33.2433 54.7723 33.7272 54.6297 34.1341C54.5309 34.431 54.476 34.4531 53.9385 34.4531C52.7758 34.4531 51.3607 33.5292 51.3607 32.7705C51.3607 32.6934 51.4923 32.4185 51.6568 32.1656C52.0077 31.6267 52.633 31.3187 53.1487 31.4396C53.4338 31.4947 54.6297 32.0116 55.595 32.4844C55.957 32.6715 56.7907 32.6385 57.2185 32.4295C57.438 32.3305 57.5915 32.1985 57.5585 32.1546C57.5366 32.0995 57.1307 32.0226 56.6591 31.9785C55.7815 31.9016 55.3097 31.7697 55.3097 31.6267C55.3097 31.5716 55.5072 31.4506 55.7485 31.3518C56.0119 31.2418 56.1874 31.0988 56.1874 30.9888C56.1874 30.8239 56.0995 30.8018 55.5072 30.8788C54.5968 30.9779 53.8727 30.9779 52.9952 30.8788C51.9311 30.7579 51.3497 31.0989 50.6476 32.2536C50.1977 32.9903 49.6054 33.4303 48.5085 33.8372C47.6089 34.167 47.0715 34.409 46.3144 34.8378C45.6562 35.2118 45.2723 35.1898 44.8883 34.7829C44.7238 34.607 44.5483 34.321 44.5044 34.156C44.4385 33.8921 44.4934 33.8043 44.8007 33.5401C44.9981 33.3752 45.2832 33.2103 45.437 33.1664C45.5905 33.1333 45.766 33.0674 45.8209 33.0232C45.8866 32.9793 46.1499 32.9134 46.4242 32.8693C47.1262 32.7705 48.0587 32.3085 48.4756 31.8575C48.673 31.6377 49.013 31.1977 49.2325 30.8569C49.8358 29.9441 50.1977 29.647 50.8779 29.4931C51.5252 29.3501 52.6111 29.4821 54.2456 29.9109C54.9587 30.087 55.0246 30.087 55.6719 29.9109C56.6152 29.636 58.0083 29.3941 58.6227 29.3941C59.193 29.3941 59.4015 29.2182 59.0944 28.9872C58.8201 28.7893 57.6354 28.8003 57.1417 29.0093C56.1983 29.4052 55.7046 29.0972 55.7046 28.1405C55.7046 27.2387 56.1764 26.6888 57.043 26.5679C57.4599 26.5128 57.4819 26.5237 57.7123 26.9857C58.4362 28.3934 59.7087 29.0093 60.9813 28.5693C62.0891 28.1844 62.8789 27.4255 63.5591 26.1059C63.7456 25.7429 64.0089 25.49 64.5793 25.1272L65.3472 24.6213L64.9632 24.5333C63.9979 24.2913 62.8242 23.8624 62.4184 23.6095C61.7382 23.1806 60.9483 22.9826 60.2462 23.0597C58.5568 23.2575 57.5805 24.0825 57.405 25.457C57.3391 25.9959 57.3174 26.029 56.9552 26.1278C56.7468 26.1829 56.5274 26.2708 56.4727 26.3259C56.2862 26.5018 55.9789 26.4359 55.8474 26.172C55.7705 26.04 55.6936 25.3141 55.6609 24.5003C55.617 23.0155 55.5181 22.6967 55.244 23.0597C55.0246 23.3675 55.0466 23.7964 55.3756 25.226L55.6609 26.4798L55.4634 27.4146C55.244 28.5144 55.0793 28.8884 54.6954 29.1301C54.3115 29.3943 53.4558 29.2733 52.8744 28.8774C52.2272 28.4374 52.1615 28.2944 52.4136 27.7885L52.6221 27.3597L53.3242 27.3926C53.8617 27.4255 54.0044 27.4036 53.9715 27.2826C53.9056 27.0847 53.4448 26.8757 52.8744 26.7986C52.2821 26.7218 52.0187 26.9196 52.0187 27.4475C52.0187 28.0305 51.7993 28.3164 51.196 28.5034C50.4611 28.7452 49.3313 29.3831 48.2123 30.1751C47.1921 30.9008 46.0621 31.5057 45.2503 31.7697C44.9432 31.8687 44.1315 31.9565 43.2977 31.9897C41.6303 32.0556 41.3452 31.9675 41.2903 31.3847C41.2134 30.6588 42.113 29.7351 43.3087 29.2843C43.9889 29.0313 45.3052 28.9872 45.6891 29.1962C45.8209 29.2621 46.3034 29.3172 46.7532 29.3172C47.6966 29.3172 48.3658 29.0642 48.8815 28.5254C49.2434 28.1405 49.1995 28.1075 48.7168 28.3605C48.5303 28.4483 48.3438 28.5034 48.3109 28.4593C48.2781 28.4264 48.3328 28.1624 48.4426 27.8765C48.7607 27.0516 48.7826 26.9418 48.6072 26.9967C48.3987 27.0628 47.9709 27.7226 47.8942 28.0634C47.8064 28.5364 47.576 28.8993 47.3675 28.9323C47.0276 28.9982 45.766 28.8333 45.766 28.7232C45.766 28.6683 46.0074 28.5034 46.3144 28.3493C47.0605 27.9756 47.4554 27.1948 46.8958 27.1948C46.7972 27.1948 46.3474 27.4475 45.9085 27.7446C45.1736 28.2505 44.9981 28.3164 44.0326 28.4703C42.7274 28.6793 42.2226 28.8662 41.6303 29.3501C41.1148 29.779 40.5991 29.9331 40.4236 29.7021C40.3577 29.6251 40.2481 29.2952 40.1713 28.9762C40.1056 28.6683 39.9958 28.3825 39.9519 28.3493C39.7983 28.2615 39.6997 28.9323 39.7873 29.4711C39.8752 30.087 40.0507 30.3839 40.314 30.3839C40.4126 30.3839 40.5552 30.5049 40.6211 30.6478C40.7199 30.8679 40.6979 31.0218 40.4675 31.5277C39.8862 32.8034 38.6026 33.6501 37.703 33.3533C36.8803 33.0784 36.9352 32.3634 37.9334 30.4059C38.7232 28.8774 39.4034 27.9095 39.9081 27.6126C40.2921 27.3816 41.3999 27.1616 43.0234 26.9747C43.6597 26.9087 45.0419 26.6779 46.095 26.4579C47.1481 26.2488 48.2342 26.029 48.5085 25.9849C51.7666 25.4351 52.2381 25.4351 52.6879 25.9739C53.0279 26.3918 53.1158 26.4028 53.1158 26.029C53.1158 25.347 52.7428 25.0941 51.5472 24.9952C50.5817 24.9072 50.3076 24.7423 50.4172 24.3023C50.4721 24.0825 50.5926 24.0054 51.1413 23.8844C52.0187 23.6864 52.1615 23.5214 51.6348 23.2905C51.1083 23.0816 50.9438 23.0816 50.527 23.3346C50.1648 23.5544 49.8248 24.1593 49.8248 24.5772C49.8248 24.9401 49.5395 25.1821 48.8815 25.3802C47.7954 25.71 46.5997 25.5341 46.3144 25.0062C45.9415 24.3023 46.6764 22.2898 47.5101 21.7288C47.8942 21.4759 49.0789 21.4649 49.6054 21.7178C51.6458 22.6857 52.2711 22.9055 53.0389 22.9055C53.5766 22.9055 53.9934 22.7626 53.9934 22.5757C53.9934 22.4108 53.2256 22.2457 52.4356 22.2457C51.7556 22.2457 51.6787 22.2237 51.3168 21.872C50.9658 21.5419 50.9219 21.4429 50.9219 20.926C50.9219 20.2442 51.1193 19.4964 51.3277 19.4194C51.4044 19.3864 51.8542 19.6614 52.326 20.0133C53.807 21.157 54.0591 21.289 54.9807 21.3439C55.573 21.377 55.9679 21.4759 56.4068 21.6849C57.1856 22.0588 57.9207 22.0698 58.6007 21.7178C59.6099 21.19 60.2132 20.3872 60.5095 19.1665C60.6081 18.7706 60.7399 18.2647 60.8056 18.0337C60.8605 17.8138 61.1348 17.3739 61.3981 17.0769C61.6723 16.769 61.8917 16.4831 61.8917 16.4391C61.8917 16.3951 61.2883 16.3731 60.5534 16.3951C59.7197 16.4171 59.0176 16.3841 58.7325 16.2961C58.4691 16.2191 58.1181 16.1642 57.9425 16.1752C57.5148 16.1862 56.2642 16.6261 55.913 16.879C54.9477 17.6048 54.6625 18.1107 54.6517 19.0895C54.6517 19.4414 54.7283 19.9033 54.8162 20.1233C55.0246 20.6292 55.0356 20.5962 54.6077 20.5962C54.1799 20.5962 53.3462 20.1892 52.7868 19.7054C51.975 19.0015 51.7995 18.8146 51.7995 18.6166C51.7995 18.4076 52.1944 17.9567 52.3699 17.9567C52.4138 17.9567 52.7099 17.8358 53.0279 17.6928C53.3462 17.5498 53.807 17.3519 54.0591 17.2529C54.3005 17.1429 54.6517 16.934 54.8272 16.791L55.1452 16.5161L54.6844 16.5711C53.0719 16.791 51.0425 17.9787 50.6366 18.9355C50.5379 19.1555 50.4172 19.7713 50.3623 20.3102C50.3076 20.8492 50.2526 21.311 50.2307 21.3329C50.2087 21.3551 49.8028 21.267 49.3203 21.146C48.8485 21.0251 48.2452 20.926 47.9928 20.926C47.7076 20.926 47.4664 20.8601 47.3566 20.7392C46.9507 20.3432 47.4444 18.5616 48.1464 17.8798C48.3219 17.7148 48.695 17.3959 48.9801 17.1869C49.5505 16.758 49.6054 16.6371 49.2434 16.6371C48.4207 16.6371 46.8848 18.6716 46.7093 19.9913C46.5668 21.1351 45.9854 23.1475 45.5905 23.8954C45.1407 24.7642 44.5813 25.3251 44.1644 25.3251C43.3307 25.3251 42.475 24.4123 42.475 23.5105C42.475 22.8287 42.7054 22.4657 43.3964 22.0478C44.2411 21.5419 44.9213 20.9041 45.1956 20.3322C45.3381 20.0463 45.5576 19.3424 45.6672 18.7486C45.8976 17.6378 46.0513 17.2969 46.5228 16.879C46.7752 16.648 47.8503 16.0982 48.0477 16.0872C48.0917 16.0762 48.3219 15.9882 48.5632 15.8672C48.8046 15.7463 49.046 15.6583 49.0899 15.6473C49.1336 15.6473 49.4519 15.4713 49.7809 15.2623C50.1101 15.0534 50.4062 14.8774 50.4281 14.8774C50.4611 14.8774 50.6366 15.0424 50.8121 15.2404C51.5909 16.1422 53.2693 16.5711 54.1799 16.0982C54.7832 15.7902 55.4744 14.9764 55.7485 14.2616C55.924 13.7887 55.9679 13.3928 55.9679 12.425C55.9679 11.2703 55.9899 11.1603 56.3079 10.5004C56.5054 10.1265 56.6262 9.78561 56.5932 9.75261C56.5603 9.71962 56.1654 9.81859 55.7156 9.98356C55.266 10.1375 54.5528 10.2915 54.136 10.3245C52.655 10.4344 51.7336 10.8524 50.8999 11.7761C50.2417 12.502 50.1321 12.8209 50.1758 13.7557C50.2087 14.5695 50.2087 14.5805 49.8797 14.7565C49.1228 15.1744 47.1811 15.8892 46.9946 15.8122C46.8848 15.7682 46.863 15.6143 46.9177 15.1854C46.9946 14.5035 46.7752 13.6127 46.5338 13.6127C46.4023 13.6127 46.3583 13.8657 46.3144 14.8225C46.2487 15.9992 46.2377 16.0542 45.8538 16.5821C45.404 17.2089 45.1077 18.0997 45.1077 18.8036C45.1077 19.3534 44.8774 19.9803 44.5264 20.3542C44.0107 20.9151 42.5956 21.6739 42.3544 21.52C42.2995 21.487 42.2556 21.3219 42.2556 21.157C42.2556 20.926 42.4421 20.6292 42.9687 20.0463C43.6926 19.2325 43.8462 18.8915 43.7695 18.1657C43.7256 17.6378 43.5611 17.7368 43.3417 18.4516C43.2428 18.7816 43.0674 19.1885 42.9687 19.3534C42.7603 19.6724 42.146 20.2662 42.0252 20.2662C41.9046 20.2662 41.7401 20.0023 41.6632 19.6833C41.6303 19.5184 41.5426 19.3864 41.4877 19.3864C41.1915 19.3864 41.2244 20.4752 41.5426 21.8608C41.7838 22.8397 41.8058 24.4674 41.6083 25.0721C41.367 25.798 40.5881 25.9629 39.6119 25.5009C38.4819 24.9621 38.3064 24.0493 39.2719 23.7415C39.6668 23.6095 40.1713 23.0597 40.1713 22.7516C40.1713 22.2788 39.8532 22.4108 39.0634 23.2136C38.0432 24.2583 37.8785 24.9843 38.5258 25.5451C38.866 25.8419 38.7891 26.1388 38.2297 26.6557C37.5166 27.3046 37.363 27.5465 37.0448 28.5693C36.7158 29.636 36.3977 30.197 36.1344 30.1419C35.7834 30.0761 35.8272 29.0862 36.266 27.7116C37.0121 25.336 37.0777 24.7862 36.8146 23.1036C36.7707 22.8726 36.7707 22.5647 36.8146 22.4328C36.8693 22.1908 36.9572 22.1579 37.714 22.1028C38.2407 22.0478 38.6903 21.9488 38.9536 21.7949C39.3705 21.5639 39.8642 20.948 40.0068 20.4862C40.0726 20.2772 39.9628 20.3542 39.535 20.7941L38.9756 21.3661H38.2734C37.1217 21.3661 37.0448 20.926 38.0323 19.9033C38.5807 19.3204 39.0524 19.0895 40.5005 18.6716C42.497 18.0997 42.9687 17.6378 43.1772 16.0872C43.2648 15.4603 43.583 14.9214 44.0107 14.6795C44.1864 14.5805 44.3399 14.4595 44.3399 14.4045C44.3399 14.3606 44.4058 14.3276 44.4825 14.3276C44.7019 14.3276 45.5246 13.5797 45.7111 13.2168C45.7989 13.0519 45.8756 12.634 45.8756 12.282C45.8756 11.7321 45.8975 11.6772 46.073 11.7431C46.4572 11.9081 47.203 11.9851 47.7844 11.8971C48.4756 11.8091 49.1119 11.4132 49.4848 10.8414C49.7589 10.4125 50.0442 9.38969 50.0442 8.82882C50.0442 8.4549 49.7589 7.36614 49.4848 6.66229C49.375 6.38735 49.364 6.12342 49.4628 5.45257C49.5287 4.97968 49.5725 4.58376 49.5505 4.56178C49.5397 4.53978 49.0899 4.82572 48.5523 5.18863C48.0148 5.54055 47.2799 5.92547 46.9177 6.04644C45.766 6.39836 44.5374 7.89401 44.3728 9.15874C44.285 9.80759 44.6032 10.6214 45.1846 11.1823C45.7111 11.6992 45.733 11.8641 45.404 12.7329C45.1187 13.5028 44.263 13.9097 43.8791 13.4698C43.6926 13.2718 43.4403 12.458 43.2428 11.4352C43.1113 10.7754 42.9138 10.5884 42.9138 11.1273C42.9138 11.3142 43.0893 12.1391 43.2977 12.9639C43.5172 13.7887 43.6707 14.5365 43.6377 14.6245C43.6048 14.7015 43.4293 14.7675 43.2428 14.7675C42.9358 14.7675 42.8809 14.7015 42.4201 13.7337C42.146 13.1618 41.9266 12.6559 41.9266 12.601C41.9266 12.48 41.2903 10.9513 40.8954 10.1595C40.7417 9.82959 40.6101 9.52165 40.6101 9.47767C40.6101 9.43367 40.9501 9.2907 41.3779 9.15874C42.3105 8.8728 42.804 8.4109 43.1332 7.53111C43.5721 6.37637 43.3526 5.3536 42.3434 3.85793C42.0581 3.42902 41.9046 3.06611 41.8607 2.70319C41.8277 2.41726 41.7838 2.02135 41.7511 1.82339L41.6962 1.47147L40.687 2.48324C40.1273 3.04413 39.4474 3.65998 39.1511 3.85793C38.7452 4.13286 38.5587 4.36381 38.3173 4.8917C37.8675 5.88147 37.7579 6.25539 37.7579 6.89326C37.7579 7.91601 38.4601 8.80682 39.5899 9.21372L40.1932 9.43367L40.6321 10.5334C40.8625 11.1383 41.1475 11.8311 41.2574 12.0731C42.1021 13.9427 42.3215 15.5263 41.8277 16.3291C41.3999 17.044 40.2481 17.7368 39.4913 17.7368C39.0854 17.7368 39.0744 17.7258 39.0744 17.3629C39.0744 16.967 39.535 16.2851 40.3358 15.5373C40.7417 15.1524 41.1148 14.5695 41.005 14.4705C40.9283 14.3936 40.5005 14.5475 40.5005 14.6575C40.5005 14.7125 40.1603 15.1414 39.7434 15.6033C38.9646 16.4501 38.6026 17.066 38.4711 17.7478C38.3942 18.1657 38.1309 18.5286 37.8348 18.6496C37.4179 18.8146 37.3411 17.6048 37.736 16.967C37.8238 16.813 38.1858 16.3951 38.5368 16.0322C39.2828 15.2404 39.513 14.6465 39.513 13.5248C39.513 12.7879 39.3924 12.326 39.2389 12.48C39.206 12.513 39.0744 13.0958 38.9536 13.7777C38.833 14.4595 38.6903 15.1084 38.6356 15.2184C38.5697 15.3283 38.2954 15.6033 38.0103 15.8342C37.714 16.0652 37.4179 16.3291 37.3411 16.4171C37.0121 16.813 36.7268 17.5168 36.5513 18.4076C36.2989 19.6394 36.2879 19.6614 35.7505 21.036C35.2348 22.3777 35.1801 22.4657 34.8619 22.4657C34.5219 22.4547 34.2585 22.2128 34.1817 21.8388C34.116 21.509 34.2585 21.278 35.0483 20.4312C35.4652 19.9913 35.7944 19.3314 35.7175 19.1225C35.6079 18.8475 35.5311 18.9135 35.2677 19.4744C35.0373 19.9693 34.3244 20.816 34.127 20.816C34.083 20.816 33.9842 20.6072 33.9075 20.3542C33.8087 19.9473 33.8197 19.8263 34.0172 19.4194C34.2256 18.9795 34.2366 18.6166 34.0172 18.6166C33.8417 18.6166 33.4797 19.4854 33.3589 20.2332C33.2493 20.8711 33.2603 21.08 33.4248 21.619C33.6003 22.2347 34.3024 23.3895 34.8509 23.9834C35.1801 24.3354 35.2458 24.7201 35.1252 25.468C35.0373 26.051 34.467 27.5136 34.1817 27.8985C33.9732 28.1844 33.6222 28.0634 33.0519 27.5026C32.5472 26.9967 32.2072 26.4028 31.8781 25.4351C31.7026 24.9292 31.6697 24.5223 31.6807 22.9055C31.6807 21.1241 31.7026 20.926 31.9658 20.2002C32.1195 19.7713 32.3717 19.2215 32.5254 18.9795C32.7885 18.5616 33.4468 17.9567 33.6332 17.9567C33.7758 17.9567 35.893 16.868 36.2223 16.6261C36.6172 16.3291 36.9132 15.9002 36.7817 15.8232C36.7377 15.7902 36.4854 15.9112 36.233 16.0982C35.9809 16.2961 35.7066 16.4061 35.6079 16.3731C35.3775 16.2851 35.5201 16.0542 36.2989 15.2623C37.3521 14.1956 37.9225 13.4368 38.3064 12.656C38.6576 11.9191 38.855 11.0283 38.6795 11.0283C38.4272 11.0393 38.2734 11.2593 38.1858 11.7431C37.9224 13.1728 36.3648 15.0314 36.0685 14.2616C35.8381 13.6677 36.1893 12.348 37.1546 10.1595C37.4289 9.53265 37.6264 8.98277 37.5934 8.94978C37.385 8.75183 36.8803 9.51065 36.3428 10.8084C36.2003 11.1383 36.0466 11.4572 35.9919 11.5122C35.8821 11.6332 35.2128 11.1933 34.7083 10.6654C34.3024 10.2475 33.3699 8.83982 33.3699 8.65285C33.3699 8.57587 33.6662 8.4329 34.0281 8.32291C34.7742 8.10296 35.6297 7.49811 35.904 7.00323C36.2003 6.46436 36.266 5.63954 36.0685 4.86972C35.8601 4.0559 35.4872 3.49501 34.5438 2.59322C33.9624 2.03235 33.7868 1.77941 33.5783 1.19654C33.4468 0.800627 33.3042 0.470703 33.2713 0.470703C33.2273 0.470703 33.0738 0.756639 32.9093 1.09756Z" fill="#0450A0"/>
</g>
</svg>
