<svg width="20" height="21" viewBox="0 0 20 21" fill="none" xmlns="http://www.w3.org/2000/svg">
<path d="M9.35651 17.4062C9.32271 17.5414 9.24469 17.6615 9.13484 17.7473C9.02499 17.833 8.88963 17.8796 8.75026 17.8797C8.6976 17.8799 8.64511 17.8736 8.59401 17.8609L6.09401 17.2359C6.02441 17.2184 5.95834 17.1891 5.89869 17.1492L4.02369 15.8992C3.8858 15.8072 3.7901 15.6642 3.75765 15.5016C3.7252 15.3391 3.75865 15.1703 3.85065 15.0324C3.94264 14.8945 4.08565 14.7988 4.24821 14.7664C4.41076 14.7339 4.57955 14.7674 4.71744 14.8594L6.50182 16.0492L8.89713 16.6484C8.97716 16.6678 9.05257 16.7028 9.11902 16.7515C9.18547 16.8001 9.24165 16.8614 9.28434 16.9318C9.32703 17.0023 9.35538 17.0804 9.36777 17.1618C9.38015 17.2432 9.37632 17.3263 9.35651 17.4062ZM19.7229 9.87029C19.6716 10.0261 19.59 10.1701 19.4827 10.2942C19.3754 10.4182 19.2447 10.5197 19.0979 10.5929L17.2479 11.5179L12.9448 15.8219C12.8684 15.8981 12.7736 15.9534 12.6695 15.9821C12.5655 16.0109 12.4557 16.0122 12.351 15.9859L7.35104 14.7359C7.275 14.7168 7.2032 14.6837 7.13932 14.6383L2.80182 11.5414L0.904943 10.5929C0.608486 10.4447 0.383022 10.1849 0.278125 9.87048C0.173228 9.55608 0.197487 9.2129 0.345567 8.91638L2.28697 5.03435C2.43517 4.7379 2.69504 4.51243 3.00944 4.40753C3.32383 4.30264 3.66702 4.3269 3.96354 4.47498L5.68697 5.33435L9.8276 4.15154C9.93993 4.11941 10.059 4.11941 10.1713 4.15154L14.312 5.33435L16.0354 4.47498C16.3319 4.3269 16.6751 4.30264 16.9895 4.40753C17.3039 4.51243 17.5638 4.7379 17.712 5.03435L19.6534 8.91638C19.7274 9.0629 19.7717 9.22264 19.7836 9.38638C19.7956 9.55011 19.7749 9.71458 19.7229 9.87029ZM16.1151 10.8812L13.9893 6.62966H11.5034L8.12526 9.91091C9.11432 10.5429 10.6651 10.7172 12.0565 9.31482C12.1652 9.20529 12.3105 9.13982 12.4646 9.13102C12.6186 9.12223 12.7704 9.17072 12.8909 9.26716L15.5792 11.4211L16.1151 10.8812ZM1.46354 9.47498L2.84557 10.1664L4.78697 6.28435L3.40494 5.59295L1.46354 9.47498ZM14.6878 12.3062L12.5229 10.5726C10.9963 11.8226 9.05807 11.9875 7.45182 10.9633C7.29382 10.8628 7.16041 10.728 7.06147 10.569C6.96252 10.4101 6.90056 10.2309 6.88016 10.0447C6.85976 9.85858 6.88144 9.67023 6.94361 9.49359C7.00577 9.31695 7.10683 9.15654 7.23932 9.0242C7.2412 9.02192 7.24329 9.01983 7.24557 9.01794L10.7503 5.61873L10.0003 5.40466L6.06119 6.53045L3.92291 10.8062L7.76666 13.5523L12.3089 14.6875L14.6878 12.3062ZM18.5346 9.47498L16.5956 5.59295L15.2135 6.28435L17.1549 10.1664L18.5346 9.47498Z" fill="white"/>
</svg>
