<svg width="28" height="29" viewBox="0 0 28 29" fill="none" xmlns="http://www.w3.org/2000/svg">
<g id="Icon">
<path id="Vector" d="M7.875 15.3457H3.5C3.26794 15.3457 3.04538 15.2535 2.88128 15.0894C2.71719 14.9253 2.625 14.7028 2.625 14.4707C2.625 14.2386 2.71719 14.0161 2.88128 13.852C3.04538 13.6879 3.26794 13.5957 3.5 13.5957H7.40688L8.89656 11.3601C8.97644 11.2401 9.08473 11.1416 9.21181 11.0736C9.33889 11.0055 9.48083 10.9699 9.625 10.9699C9.76917 10.9699 9.91111 11.0055 10.0382 11.0736C10.1653 11.1416 10.2736 11.2401 10.3534 11.3601L13.125 15.5163L14.1466 13.9851C14.2265 13.8652 14.3349 13.767 14.4619 13.699C14.589 13.6311 14.7309 13.5956 14.875 13.5957H17.5C17.7321 13.5957 17.9546 13.6879 18.1187 13.852C18.2828 14.0161 18.375 14.2386 18.375 14.4707C18.375 14.7028 18.2828 14.9253 18.1187 15.0894C17.9546 15.2535 17.7321 15.3457 17.5 15.3457H15.3431L13.8534 17.5813C13.7736 17.7014 13.6653 17.7998 13.5382 17.8679C13.4111 17.9359 13.2692 17.9716 13.125 17.9716C12.9808 17.9716 12.8389 17.9359 12.7118 17.8679C12.5847 17.7998 12.4764 17.7014 12.3966 17.5813L9.625 13.4229L8.60344 14.9541C8.52372 15.0744 8.41549 15.1731 8.2884 15.2414C8.16131 15.3097 8.01929 15.3456 7.875 15.3457ZM19.4688 3.9707C17.2102 3.9707 15.2327 4.94195 14 6.58367C12.7673 4.94195 10.7898 3.9707 8.53125 3.9707C6.73337 3.97273 5.00971 4.68783 3.73842 5.95912C2.46713 7.23042 1.75203 8.95408 1.75 10.752C1.75 10.834 1.75 10.916 1.75 10.998C1.75725 11.2301 1.85639 11.4498 2.02562 11.6088C2.19484 11.7677 2.42028 11.853 2.65234 11.8457C2.88441 11.8385 3.10409 11.7393 3.26305 11.5701C3.42202 11.4009 3.50725 11.1754 3.5 10.9434C3.5 10.8799 3.5 10.8154 3.5 10.752C3.50174 9.41812 4.03237 8.13941 4.97554 7.19624C5.9187 6.25307 7.19741 5.72244 8.53125 5.7207C10.6586 5.7207 12.4447 6.85383 13.1906 8.67383C13.2565 8.83431 13.3687 8.97158 13.5128 9.06818C13.6569 9.16478 13.8265 9.21636 14 9.21636C14.1735 9.21636 14.3431 9.16478 14.4872 9.06818C14.6313 8.97158 14.7435 8.83431 14.8094 8.67383C15.5553 6.85055 17.3414 5.7207 19.4688 5.7207C20.8026 5.72244 22.0813 6.25307 23.0245 7.19624C23.9676 8.13941 24.4983 9.41812 24.5 10.752C24.5 16.6155 15.995 21.9246 14 23.0895C12.8155 22.3993 9.33734 20.2457 6.70688 17.379C6.54994 17.2078 6.33145 17.106 6.09946 17.096C5.86747 17.0859 5.64099 17.1685 5.46984 17.3254C5.2987 17.4823 5.1969 17.7008 5.18685 17.9328C5.1768 18.1648 5.25932 18.3913 5.41625 18.5624C8.82547 22.2812 13.393 24.7618 13.5855 24.8657C13.7129 24.9342 13.8553 24.9701 14 24.9701C14.1447 24.9701 14.2871 24.9342 14.4145 24.8657C14.898 24.6054 26.25 18.4082 26.25 10.752C26.248 8.95408 25.5329 7.23042 24.2616 5.95912C22.9903 4.68783 21.2666 3.97273 19.4688 3.9707Z" fill="#0450A0"/>
</g>
</svg>
