<svg width="254" height="255" viewBox="0 0 254 255" fill="none" xmlns="http://www.w3.org/2000/svg">
<g opacity="0.04">
<path d="M198.438 151.312C191.422 151.308 184.604 153.64 179.06 157.94L156.131 140.08C157.862 136.112 158.754 131.829 158.75 127.499C158.75 126.765 158.75 126.031 158.671 125.307L171.797 120.931C175.95 127.336 182.272 132.03 189.604 134.154C196.936 136.278 204.788 135.689 211.721 132.496C218.654 129.302 224.205 123.717 227.356 116.765C230.507 109.812 231.048 101.957 228.879 94.6376C226.71 87.3186 221.977 81.026 215.547 76.9125C209.117 72.7989 201.42 71.1397 193.866 72.2388C186.312 73.338 179.407 77.1219 174.415 82.8974C169.424 88.6729 166.681 96.0534 166.688 103.687C166.688 104.421 166.688 105.155 166.767 105.88L153.64 110.255C150.763 105.807 146.818 102.149 142.165 99.6151C137.511 97.0814 132.298 95.7525 127 95.7494C125.248 95.753 123.499 95.899 121.771 96.186L114.985 80.8666C120.845 76.1844 124.858 69.5786 126.313 62.2202C127.768 54.8618 126.57 47.2259 122.933 40.6659C119.296 34.106 113.453 29.0456 106.441 26.3817C99.4294 23.7178 91.7008 23.6225 84.6254 26.1126C77.5499 28.6027 71.5845 33.5175 67.7865 39.9857C63.9885 46.454 62.6032 54.058 63.8761 61.4501C65.1491 68.8422 68.998 75.5449 74.7408 80.3702C80.4835 85.1955 87.7492 87.8318 95.2501 87.8119C97.002 87.8083 98.7507 87.6623 100.479 87.3753L107.265 102.655C101.51 107.21 97.516 113.622 95.965 120.796C94.4141 127.97 95.4029 135.46 98.7624 141.985L73.2533 164.647C66.8337 160.319 59.056 158.481 51.3782 159.478C43.7004 160.474 36.6496 164.236 31.5474 170.059C26.4451 175.883 23.6417 183.367 23.6627 191.109C23.6837 198.851 26.5276 206.32 31.6613 212.115C36.795 217.91 43.8661 221.634 51.5492 222.589C59.2323 223.544 66.9999 221.664 73.3959 217.302C79.792 212.939 84.3775 206.394 86.2929 198.892C88.2082 191.391 87.322 183.448 83.8002 176.553L109.309 153.892C114.833 157.61 121.388 159.493 128.042 159.272C134.697 159.051 141.113 156.738 146.377 152.661L169.307 170.521C167.581 174.477 166.69 178.746 166.688 183.062C166.688 189.341 168.55 195.48 172.038 200.701C175.527 205.923 180.486 209.992 186.287 212.395C192.089 214.798 198.473 215.427 204.632 214.202C210.791 212.977 216.448 209.953 220.888 205.513C225.329 201.072 228.352 195.415 229.578 189.256C230.803 183.097 230.174 176.713 227.771 170.912C225.368 165.11 221.298 160.151 216.077 156.663C210.856 153.174 204.717 151.312 198.438 151.312ZM198.438 87.8119C201.577 87.8119 204.647 88.7429 207.257 90.4873C209.868 92.2317 211.903 94.711 213.104 97.6118C214.306 100.513 214.62 103.704 214.008 106.784C213.395 109.863 211.883 112.692 209.663 114.912C207.443 117.132 204.614 118.644 201.535 119.257C198.455 119.869 195.263 119.555 192.362 118.353C189.462 117.152 186.982 115.117 185.238 112.507C183.494 109.896 182.563 106.827 182.563 103.687C182.563 99.4766 184.235 95.4387 187.212 92.4616C190.189 89.4844 194.227 87.8119 198.438 87.8119ZM79.3751 56.0619C79.3751 52.9221 80.3061 49.8529 82.0505 47.2422C83.7949 44.6316 86.2742 42.5968 89.175 41.3953C92.0758 40.1938 95.2677 39.8794 98.3471 40.4919C101.427 41.1045 104.255 42.6164 106.475 44.8366C108.696 47.0567 110.207 49.8854 110.82 52.9648C111.433 56.0443 111.118 59.2362 109.917 62.137C108.715 65.0378 106.68 67.5171 104.07 69.2615C101.459 71.0058 98.3899 71.9369 95.2501 71.9369C91.0398 71.9369 87.0019 70.2644 84.0248 67.2872C81.0476 64.3101 79.3751 60.2722 79.3751 56.0619ZM55.5626 206.874C52.4228 206.874 49.3535 205.943 46.7429 204.199C44.1323 202.455 42.0975 199.975 40.896 197.074C39.6945 194.174 39.3801 190.982 39.9926 187.902C40.6052 184.823 42.1171 181.994 44.3373 179.774C46.5574 177.554 49.3861 176.042 52.4655 175.429C55.545 174.817 58.7369 175.131 61.6377 176.333C64.5385 177.534 67.0178 179.569 68.7622 182.18C70.5065 184.79 71.4376 187.86 71.4376 190.999C71.4376 195.21 69.765 199.248 66.7879 202.225C63.8108 205.202 59.7729 206.874 55.5626 206.874ZM111.125 127.499C111.125 124.36 112.056 121.29 113.8 118.68C115.545 116.069 118.024 114.034 120.925 112.833C123.826 111.631 127.018 111.317 130.097 111.929C133.177 112.542 136.005 114.054 138.225 116.274C140.446 118.494 141.957 121.323 142.57 124.402C143.183 127.482 142.868 130.674 141.667 133.574C140.465 136.475 138.43 138.955 135.82 140.699C133.209 142.443 130.14 143.374 127 143.374C122.79 143.374 118.752 141.702 115.775 138.725C112.798 135.748 111.125 131.71 111.125 127.499ZM198.438 198.937C195.298 198.937 192.229 198.006 189.618 196.261C187.007 194.517 184.973 192.038 183.771 189.137C182.569 186.236 182.255 183.044 182.868 179.965C183.48 176.885 184.992 174.057 187.212 171.837C189.432 169.616 192.261 168.104 195.341 167.492C198.42 166.879 201.612 167.194 204.513 168.395C207.413 169.597 209.893 171.632 211.637 174.242C213.382 176.853 214.313 179.922 214.313 183.062C214.313 187.272 212.64 191.31 209.663 194.287C206.686 197.264 202.648 198.937 198.438 198.937Z" fill="#0450A0"/>
</g>
</svg>
