<svg width="28" height="29" viewBox="0 0 28 29" fill="none" xmlns="http://www.w3.org/2000/svg">
<g id="Icon">
<path id="Vector" d="M21.6104 14.5866L15.9655 12.5085L13.8874 6.8593C13.7644 6.52497 13.5417 6.23644 13.2495 6.03263C12.9573 5.82881 12.6096 5.71954 12.2534 5.71954C11.8971 5.71954 11.5494 5.82881 11.2572 6.03263C10.965 6.23644 10.7424 6.52497 10.6193 6.8593L8.53898 12.502L2.88976 14.5801C2.55543 14.7031 2.2669 14.9258 2.06309 15.218C1.85928 15.5102 1.75 15.8579 1.75 16.2141C1.75 16.5704 1.85928 16.9181 2.06309 17.2103C2.2669 17.5025 2.55543 17.7251 2.88976 17.8482L8.53132 19.9395L10.6094 25.5854C10.7325 25.9197 10.9552 26.2083 11.2474 26.4121C11.5396 26.6159 11.8873 26.7252 12.2435 26.7252C12.5998 26.7252 12.9475 26.6159 13.2397 26.4121C13.5319 26.2083 13.7545 25.9197 13.8776 25.5854L15.9557 19.9405L21.6049 17.8624C21.9392 17.7394 22.2278 17.5167 22.4316 17.2245C22.6354 16.9323 22.7447 16.5846 22.7447 16.2284C22.7447 15.8721 22.6354 15.5244 22.4316 15.2322C22.2278 14.94 21.9392 14.7174 21.6049 14.5943L21.6104 14.5866ZM15.3552 18.2988C15.1188 18.3856 14.904 18.5228 14.7259 18.7009C14.5478 18.879 14.4106 19.0938 14.3238 19.3302L12.2457 24.9587L10.1719 19.3259C10.0851 19.0907 9.94831 18.8771 9.77102 18.6998C9.59372 18.5225 9.38012 18.3857 9.14492 18.2988L3.51648 16.2207L9.14492 14.1426C9.38012 14.0557 9.59372 13.9189 9.77102 13.7417C9.94831 13.5644 10.0851 13.3508 10.1719 13.1155L12.2501 7.48711L14.3282 13.1155C14.415 13.352 14.5522 13.5667 14.7303 13.7448C14.9084 13.923 15.1231 14.0602 15.3596 14.147L20.988 16.2251L15.3552 18.2988ZM15.7501 4.8457C15.7501 4.61364 15.8423 4.39108 16.0064 4.22698C16.1704 4.06289 16.393 3.9707 16.6251 3.9707H18.3751V2.2207C18.3751 1.98864 18.4673 1.76608 18.6314 1.60198C18.7954 1.43789 19.018 1.3457 19.2501 1.3457C19.4821 1.3457 19.7047 1.43789 19.8688 1.60198C20.0329 1.76608 20.1251 1.98864 20.1251 2.2207V3.9707H21.8751C22.1071 3.9707 22.3297 4.06289 22.4938 4.22698C22.6579 4.39108 22.7501 4.61364 22.7501 4.8457C22.7501 5.07777 22.6579 5.30033 22.4938 5.46442C22.3297 5.62852 22.1071 5.7207 21.8751 5.7207H20.1251V7.4707C20.1251 7.70277 20.0329 7.92533 19.8688 8.08942C19.7047 8.25352 19.4821 8.3457 19.2501 8.3457C19.018 8.3457 18.7954 8.25352 18.6314 8.08942C18.4673 7.92533 18.3751 7.70277 18.3751 7.4707V5.7207H16.6251C16.393 5.7207 16.1704 5.62852 16.0064 5.46442C15.8423 5.30033 15.7501 5.07777 15.7501 4.8457ZM27.1251 10.0957C27.1251 10.3278 27.0329 10.5503 26.8688 10.7144C26.7047 10.8785 26.4821 10.9707 26.2501 10.9707H25.3751V11.8457C25.3751 12.0778 25.2829 12.3003 25.1188 12.4644C24.9547 12.6285 24.7321 12.7207 24.5001 12.7207C24.268 12.7207 24.0454 12.6285 23.8814 12.4644C23.7173 12.3003 23.6251 12.0778 23.6251 11.8457V10.9707H22.7501C22.518 10.9707 22.2954 10.8785 22.1314 10.7144C21.9673 10.5503 21.8751 10.3278 21.8751 10.0957C21.8751 9.86364 21.9673 9.64108 22.1314 9.47698C22.2954 9.31289 22.518 9.2207 22.7501 9.2207H23.6251V8.3457C23.6251 8.11364 23.7173 7.89108 23.8814 7.72699C24.0454 7.56289 24.268 7.4707 24.5001 7.4707C24.7321 7.4707 24.9547 7.56289 25.1188 7.72699C25.2829 7.89108 25.3751 8.11364 25.3751 8.3457V9.2207H26.2501C26.4821 9.2207 26.7047 9.31289 26.8688 9.47698C27.0329 9.64108 27.1251 9.86364 27.1251 10.0957Z" fill="#0450A0"/>
</g>
</svg>
