<svg width="28" height="29" viewBox="0 0 28 29" fill="none" xmlns="http://www.w3.org/2000/svg">
<g id="Component 1">
<path id="Vector" d="M19.2501 25.8456C19.2501 26.0776 19.158 26.3002 18.9939 26.4643C18.8298 26.6284 18.6072 26.7206 18.3751 26.7206H9.62515C9.39309 26.7206 9.17053 26.6284 9.00643 26.4643C8.84234 26.3002 8.75015 26.0776 8.75015 25.8456C8.75015 25.6135 8.84234 25.3909 9.00643 25.2269C9.17053 25.0628 9.39309 24.9706 9.62515 24.9706H18.3751C18.6072 24.9706 18.8298 25.0628 18.9939 25.2269C19.158 25.3909 19.2501 25.6135 19.2501 25.8456ZM23.6252 11.8456C23.6288 13.3042 23.2992 14.7443 22.6615 16.0562C22.0238 17.368 21.0948 18.5168 19.9455 19.4149C19.7305 19.5797 19.556 19.7916 19.4355 20.0343C19.3149 20.2769 19.2516 20.544 19.2501 20.8149V21.4706C19.2501 21.9347 19.0658 22.3798 18.7376 22.708C18.4094 23.0362 17.9643 23.2206 17.5001 23.2206H10.5002C10.036 23.2206 9.5909 23.0362 9.26271 22.708C8.93452 22.3798 8.75015 21.9347 8.75015 21.4706V20.8137C8.74982 20.5464 8.68824 20.2827 8.57014 20.0428C8.45203 19.8029 8.28053 19.5933 8.06882 19.4301C6.92232 18.5371 5.99397 17.3951 5.35404 16.0904C4.71411 14.7856 4.37937 13.3524 4.37515 11.8992C4.34598 6.68657 8.55998 2.34424 13.7668 2.22057C15.0502 2.18961 16.3268 2.41569 17.5215 2.88551C18.7162 3.35533 19.8048 4.05939 20.7233 4.95625C21.6418 5.85312 22.3716 6.92467 22.8698 8.10782C23.3679 9.29097 23.6255 10.5618 23.6252 11.8456ZM21.8751 11.8456C21.8755 10.7952 21.6656 9.75541 21.258 8.78736C20.8504 7.81931 20.2533 6.94258 19.5018 6.20878C18.7503 5.47498 17.8595 4.89893 16.882 4.51455C15.9046 4.13016 14.86 3.94521 13.81 3.97057C9.54348 4.07091 6.10182 7.62224 6.12515 11.8887C6.12912 13.0771 6.40333 14.2491 6.92703 15.3159C7.45072 16.3827 8.2102 17.3164 9.14798 18.0464C9.56965 18.3741 9.91072 18.794 10.1451 19.2739C10.3795 19.7537 10.5009 20.2809 10.5002 20.8149V21.4706H17.5001V20.8137C17.5014 20.2784 17.625 19.7503 17.8613 19.2699C18.0977 18.7896 18.4406 18.3695 18.864 18.0417C19.8045 17.3064 20.5647 16.366 21.0863 15.2921C21.608 14.2183 21.8786 13.0394 21.8751 11.8456ZM20.1135 10.8236C19.8866 9.55625 19.2768 8.38888 18.3664 7.4786C17.4559 6.56832 16.2884 5.95885 15.021 5.73224C14.9076 5.71309 14.7916 5.71646 14.6795 5.74215C14.5674 5.76784 14.4615 5.81536 14.3678 5.88199C14.2741 5.94861 14.1944 6.03304 14.1333 6.13046C14.0723 6.22787 14.031 6.33637 14.0118 6.44974C13.9927 6.56312 13.996 6.67915 14.0217 6.79122C14.0474 6.9033 14.0949 7.00921 14.1616 7.10292C14.2282 7.19663 14.3126 7.2763 14.41 7.33738C14.5074 7.39846 14.6159 7.43976 14.7293 7.45891C16.5423 7.76341 18.08 9.30224 18.3868 11.1176C18.4258 11.3465 18.5542 11.5506 18.7436 11.685C18.9331 11.8193 19.1682 11.8729 19.3971 11.8339C19.6261 11.7949 19.8302 11.6666 19.9646 11.4771C20.0989 11.2876 20.1525 11.0525 20.1135 10.8236Z" fill="#0450A0"/>
</g>
</svg>
