<svg width="254" height="254" viewBox="0 0 254 254" fill="none" xmlns="http://www.w3.org/2000/svg">
<g id="Icon" opacity="0.04">
<path id="Vector" d="M214.311 47.6255H39.6855C37.5804 47.6255 35.5615 48.4618 34.0729 49.9503C32.5843 51.4389 31.748 53.4578 31.748 55.563V206.375C31.748 210.586 33.4206 214.624 36.3977 217.601C39.3749 220.578 43.4127 222.25 47.623 222.25H87.3105C91.5208 222.25 95.5587 220.578 98.5359 217.601C101.513 214.624 103.186 210.586 103.186 206.375V158.75H150.811V174.625C150.811 178.836 152.483 182.874 155.46 185.851C158.437 188.828 162.475 190.5 166.686 190.5H206.373C210.583 190.5 214.621 188.828 217.598 185.851C220.575 182.874 222.248 178.836 222.248 174.625V55.563C222.248 53.4578 221.412 51.4389 219.923 49.9503C218.435 48.4618 216.416 47.6255 214.311 47.6255ZM87.3105 206.375H47.623V127H87.3105V206.375ZM87.3105 111.125H47.623V63.5005H87.3105V111.125ZM150.811 142.875H103.186V63.5005H150.811V142.875ZM206.373 174.625H166.686V127H206.373V174.625ZM206.373 111.125H166.686V63.5005H206.373V111.125Z" fill="#0450A0"/>
</g>
</svg>
