<svg width="254" height="254" viewBox="0 0 254 254" fill="none" xmlns="http://www.w3.org/2000/svg">
<g opacity="0.04">
<path d="M214.311 47.625H39.6855C37.5804 47.625 35.5615 48.4613 34.0729 49.9498C32.5843 51.4384 31.748 53.4573 31.748 55.5625V206.375C31.748 210.585 33.4206 214.623 36.3977 217.6C39.3749 220.577 43.4127 222.25 47.623 222.25H87.3105C91.5208 222.25 95.5587 220.577 98.5359 217.6C101.513 214.623 103.186 210.585 103.186 206.375V158.75H150.811V174.625C150.811 178.835 152.483 182.873 155.46 185.85C158.437 188.827 162.475 190.5 166.686 190.5H206.373C210.583 190.5 214.621 188.827 217.598 185.85C220.575 182.873 222.248 178.835 222.248 174.625V55.5625C222.248 53.4573 221.412 51.4384 219.923 49.9498C218.435 48.4613 216.416 47.625 214.311 47.625ZM87.3105 206.375H47.623V127H87.3105V206.375ZM87.3105 111.125H47.623V63.5H87.3105V111.125ZM150.811 142.875H103.186V63.5H150.811V142.875ZM206.373 174.625H166.686V127H206.373V174.625ZM206.373 111.125H166.686V63.5H206.373V111.125Z" fill="#0450A0"/>
</g>
</svg>
