<svg width="20" height="21" viewBox="0 0 20 21" fill="none" xmlns="http://www.w3.org/2000/svg">
<g id="Layout">
<path id="Vector" d="M16.875 3.50488H3.125C2.79348 3.50488 2.47554 3.63658 2.24112 3.871C2.0067 4.10542 1.875 4.42336 1.875 4.75488V16.0049C1.875 16.3364 2.0067 16.6543 2.24112 16.8888C2.47554 17.1232 2.79348 17.2549 3.125 17.2549H16.875C17.2065 17.2549 17.5245 17.1232 17.7589 16.8888C17.9933 16.6543 18.125 16.3364 18.125 16.0049V4.75488C18.125 4.42336 17.9933 4.10542 17.7589 3.871C17.5245 3.63658 17.2065 3.50488 16.875 3.50488ZM16.875 4.75488V7.87988H3.125V4.75488H16.875ZM3.125 9.12988H7.5V16.0049H3.125V9.12988ZM16.875 16.0049H8.75V9.12988H16.875V16.0049Z" fill="white"/>
</g>
</svg>
