<svg width="43" height="43" viewBox="0 0 43 43" fill="none" xmlns="http://www.w3.org/2000/svg">
<g id="Logo3Blue" clip-path="url(#clip0_386_1999)">
<path id="Vector" d="M23.3418 0.240234C28.8822 6.01627 34.9424 16.1216 34.9424 24.2504C34.9424 25.4202 34.8194 26.5976 34.5698 27.7602C34.464 27.6508 34.3527 27.5449 34.2358 27.4426C33.0226 26.3672 31.3429 25.8065 29.1966 25.7604V24.0781H27.506C28.4662 22.8801 28.9765 21.3076 28.9765 19.5375C28.9765 17.4892 28.3157 15.6755 26.9879 14.4294C25.677 13.1833 24.2129 12.7267 22.0338 12.7267C21.0975 12.7267 20.1782 12.8804 19.2758 13.1876C17.4118 13.8224 15.6242 16.1579 15.6242 17.0795H19.1226C19.8036 16.2943 20.7484 15.9017 21.9572 15.9017C22.7232 15.9017 23.3702 16.0895 23.8979 16.465C24.4427 16.8405 24.8002 17.3526 24.9705 18.0012H20.6804V20.6642H25.0726C24.9194 21.4152 24.5534 22.0041 23.9746 22.4308C23.3957 22.8405 22.6978 23.0454 21.8805 23.0454C20.6888 23.0454 19.778 22.6698 19.1482 21.9188H15.6242C15.6242 23.0454 17.6671 26.0156 22.0593 26.3484C22.0747 26.3484 22.09 26.3484 22.1053 26.3483C21.4152 26.6196 20.8084 26.9844 20.2848 27.4426C19.0718 28.518 18.4652 29.9851 18.4652 31.844C18.4652 33.7029 19.0718 35.1777 20.2848 36.2685C21.5135 37.3593 23.201 37.92 25.3473 37.9507V39.5295C22.7561 40.8924 19.6169 41.853 15.9018 42.2402C8.05434 36.3225 7.05073 30.3394 7.93556 24.5336C8.32391 21.9847 10.2013 17.9544 13.1408 14.0722C14.3517 12.473 15.7129 10.8921 17.0434 9.34703C19.8396 6.09972 22.4998 3.01043 23.3418 0.240234Z" fill="#0450A0"/>
<path id="Vector_2" d="M25.3474 28.8477V34.8161C24.3364 34.7854 23.5821 34.5012 23.0844 33.9635C22.5867 33.4104 22.3379 32.696 22.3379 31.8204C22.3379 30.9293 22.5867 30.2226 23.0844 29.7003C23.5977 29.1626 24.352 28.8784 25.3474 28.8477Z" fill="#0450A0"/>
<path id="Vector_3" d="M31.4597 33.9635C30.962 34.5012 30.2077 34.7854 29.1968 34.8161V28.8477C30.1922 28.8784 30.9387 29.1626 31.4364 29.7003C31.9497 30.2226 32.2063 30.9293 32.2063 31.8204C32.2063 32.696 31.9574 33.4104 31.4597 33.9635Z" fill="#0450A0"/>
<path id="Vector_4" d="M27.2721 19.2536C27.2721 21.9636 25.0992 24.6455 22.1585 24.6455C20.3001 24.6455 18.96 24.0986 18.084 23.2091C17.2068 22.3181 16.7607 21.0487 16.7607 19.5374C16.7607 18.0252 17.208 16.6802 18.0916 15.7165C18.9715 14.7569 20.311 14.1455 22.1585 14.1455C24.5883 14.1455 27.2721 16.0355 27.2721 19.2536Z" stroke="#0450A0" stroke-width="0.545455"/>
<path id="Vector_5" d="M27.4502 36.5647C22.6206 36.5647 20.3476 34.9137 20.3479 31.7403C20.3482 28.0512 23.757 26.916 27.4502 26.916" stroke="#0450A0" stroke-width="0.545455"/>
</g>
<defs>
<clipPath id="clip0_386_1999">
<rect width="42" height="42" fill="white" transform="translate(0.319824 0.240234)"/>
</clipPath>
</defs>
</svg>
