<svg width="419" height="646" viewBox="0 0 419 646" fill="none" xmlns="http://www.w3.org/2000/svg">
<g opacity="0.05" clip-path="url(#clip0_386_2827)">
<path d="M241.568 2.06616C326.966 91.0971 420.378 246.859 420.378 372.155C420.378 390.187 418.482 408.334 414.635 426.255C413.003 424.568 411.287 422.937 409.486 421.359C390.786 404.783 364.895 396.141 331.813 395.43V369.499H305.753C320.555 351.034 328.42 326.795 328.42 299.512C328.42 267.939 318.235 239.983 297.768 220.776C277.562 201.569 254.994 194.531 221.406 194.531C206.974 194.531 192.804 196.899 178.895 201.635C150.163 211.419 122.61 247.418 122.61 261.624H176.534C187.03 249.521 201.594 243.47 220.226 243.47C232.033 243.47 242.006 246.364 250.14 252.152C258.536 257.94 264.048 265.834 266.672 275.831H200.545V316.878H268.246C265.885 328.454 260.242 337.532 251.321 344.108C242.398 350.423 231.641 353.581 219.044 353.581C200.675 353.581 186.636 347.792 176.928 336.216H122.61C122.61 353.581 154.099 399.363 221.799 404.493C222.037 404.493 222.273 404.493 222.508 404.492C211.871 408.674 202.518 414.297 194.447 421.359C175.75 437.935 166.4 460.549 166.4 489.202C166.4 517.855 175.75 540.588 194.447 557.4C213.386 574.214 239.398 582.856 272.48 583.33V607.666C232.539 628.673 184.152 643.478 126.888 649.448C5.92915 558.233 -9.54031 466.01 4.09822 376.521C10.0843 337.232 39.0224 275.11 84.3303 215.27C102.995 190.62 123.977 166.252 144.486 142.437C187.586 92.3835 228.59 44.7656 241.568 2.06616Z" fill="white"/>
<path d="M272.482 441.461V533.458C256.898 532.984 245.271 528.604 237.6 520.315C229.929 511.791 226.094 500.779 226.094 487.282C226.094 473.547 229.929 462.654 237.6 454.603C245.512 446.315 257.139 441.934 272.482 441.461Z" fill="white"/>
<path d="M366.695 520.315C359.024 528.604 347.397 532.984 331.814 533.458V441.461C347.157 441.934 358.664 446.315 366.335 454.603C374.247 462.654 378.202 473.547 378.202 487.282C378.202 500.779 374.366 511.791 366.695 520.315Z" fill="white"/>
<path d="M302.147 293.571C302.147 335.342 268.654 376.682 223.326 376.682C194.683 376.682 174.026 368.252 160.524 354.54C147.002 340.807 140.127 321.241 140.127 297.946C140.127 274.637 147.02 253.906 160.641 239.052C174.203 224.259 194.85 214.836 223.326 214.836C260.78 214.836 302.147 243.968 302.147 293.571Z" stroke="white" stroke-width="8.40755"/>
<path d="M304.891 560.398C230.45 560.398 195.414 534.95 195.418 486.036C195.422 429.172 247.965 411.675 304.891 411.675" stroke="white" stroke-width="8.40755"/>
</g>
<defs>
<clipPath id="clip0_386_2827">
<rect width="419" height="645.356" fill="white" transform="translate(0 0.5)"/>
</clipPath>
</defs>
</svg>
