<svg width="40" height="40" viewBox="0 0 40 40" fill="none" xmlns="http://www.w3.org/2000/svg">
<g id="Logo3Blue">
<rect width="40" height="40" fill="white"/>
<path id="Vector" d="M21.9259 0C27.2024 5.50099 32.974 15.1251 32.974 22.8668C32.974 23.9809 32.8569 25.1022 32.6192 26.2095C32.5184 26.1053 32.4124 26.0045 32.301 25.907C31.1457 24.8828 29.5459 24.3488 27.5018 24.3049V22.7027H25.8917C26.8062 21.5618 27.2922 20.0642 27.2922 18.3784C27.2922 16.4276 26.6629 14.7003 25.3983 13.5135C24.1498 12.3268 22.7554 11.8919 20.6801 11.8919C19.7884 11.8919 18.9128 12.0382 18.0535 12.3308C16.2782 12.9354 14.5757 15.1596 14.5757 16.0374H17.9076C18.5561 15.2896 19.4559 14.9157 20.6072 14.9157C21.3367 14.9157 21.9529 15.0945 22.4555 15.4522C22.9743 15.8098 23.3148 16.2975 23.4769 16.9152H19.3911V19.4514H23.5742C23.4283 20.1666 23.0797 20.7275 22.5285 21.1339C21.9771 21.5241 21.3125 21.7192 20.5341 21.7192C19.3992 21.7192 18.5317 21.3615 17.9319 20.6462H14.5757C14.5757 21.7192 16.5213 24.5479 20.7044 24.8649C20.7191 24.8649 20.7337 24.8649 20.7482 24.8648C20.091 25.1232 19.513 25.4706 19.0144 25.907C17.8591 26.9312 17.2814 28.3285 17.2814 30.0989C17.2814 31.8692 17.8591 33.2738 19.0144 34.3126C20.1846 35.3515 21.7917 35.8855 23.8358 35.9148V37.4184C21.368 38.7164 18.3783 39.6312 14.8401 40C7.36635 34.3641 6.41053 28.6659 7.25322 23.1366C7.62308 20.709 9.41109 16.8706 12.2105 13.1733C13.3638 11.6502 14.6602 10.1446 15.9274 8.67314C18.5904 5.58047 21.1239 2.63829 21.9259 0Z" fill="#0450A0"/>
<path id="Vector_2" d="M23.8359 27.2458V32.9301C22.8731 32.9008 22.1547 32.6301 21.6807 32.118C21.2067 31.5913 20.9697 30.9109 20.9697 30.077C20.9697 29.2283 21.2067 28.5553 21.6807 28.0578C22.1695 27.5458 22.8879 27.2751 23.8359 27.2458Z" fill="#0450A0"/>
<path id="Vector_3" d="M29.6571 32.118C29.1831 32.6301 28.4648 32.9008 27.502 32.9301V27.2458C28.45 27.2751 29.1609 27.5458 29.6349 28.0578C30.1238 28.5553 30.3681 29.2283 30.3681 30.077C30.3681 30.9109 30.1311 31.5913 29.6571 32.118Z" fill="#0450A0"/>
<path id="Vector_4" d="M25.669 18.1081C25.669 20.689 23.5996 23.2433 20.7989 23.2433C19.0291 23.2433 17.7527 22.7224 16.9185 21.8752C16.083 21.0267 15.6582 19.8177 15.6582 18.3784C15.6582 16.9382 16.0841 15.6573 16.9257 14.7395C17.7637 13.8255 19.0394 13.2433 20.7989 13.2433C23.113 13.2433 25.669 15.0432 25.669 18.1081Z" stroke="#0450A0" stroke-width="0.519481"/>
<path id="Vector_5" d="M25.8383 34.5946C21.2387 34.5946 19.074 33.0222 19.0742 30C19.0745 26.4865 22.321 25.4054 25.8383 25.4054" stroke="#0450A0" stroke-width="0.519481"/>
</g>
</svg>
