<svg width="254" height="254" viewBox="0 0 254 254" fill="none" xmlns="http://www.w3.org/2000/svg">
<g opacity="0.04">
<path d="M42.842 127.001C46.2058 129.768 48.9163 133.244 50.7795 137.181C55.542 147.004 55.542 159.009 55.542 170.658C55.542 194.778 56.5342 206.376 79.3545 206.376C81.4596 206.376 83.4786 207.213 84.9671 208.701C86.4557 210.19 87.292 212.209 87.292 214.314C87.292 216.419 86.4557 218.438 84.9671 219.927C83.4786 221.415 81.4596 222.251 79.3545 222.251C62.0111 222.251 50.2636 216.159 44.4295 204.134C39.667 194.311 39.667 182.306 39.667 170.658C39.667 146.538 38.6748 134.939 15.8545 134.939C13.7493 134.939 11.7304 134.103 10.2418 132.614C8.75326 131.126 7.91699 129.107 7.91699 127.001C7.91699 124.896 8.75326 122.877 10.2418 121.389C11.7304 119.9 13.7493 119.064 15.8545 119.064C38.6748 119.064 39.667 107.465 39.667 83.3452C39.667 71.7168 39.667 59.6915 44.4295 49.8688C50.2834 37.8435 62.0309 31.7515 79.3743 31.7515C81.4795 31.7515 83.4984 32.5877 84.987 34.0763C86.4756 35.5649 87.3118 37.5838 87.3118 39.689C87.3118 41.7941 86.4756 43.8131 84.987 45.3016C83.4984 46.7902 81.4795 47.6265 79.3743 47.6265C56.554 47.6265 55.5618 59.2251 55.5618 83.3452C55.5618 94.9736 55.5618 106.999 50.7993 116.822C48.9304 120.76 46.213 124.237 42.842 127.001ZM238.124 119.064C215.304 119.064 214.312 107.465 214.312 83.3452C214.312 71.7168 214.312 59.6915 209.549 49.8688C203.715 37.8435 191.968 31.7515 174.624 31.7515C172.519 31.7515 170.5 32.5877 169.012 34.0763C167.523 35.5649 166.687 37.5838 166.687 39.689C166.687 41.7941 167.523 43.8131 169.012 45.3016C170.5 46.7902 172.519 47.6265 174.624 47.6265C197.445 47.6265 198.437 59.2251 198.437 83.3452C198.437 94.9736 198.437 106.999 203.199 116.822C205.063 120.758 207.773 124.235 211.137 127.001C207.773 129.768 205.063 133.244 203.199 137.181C198.437 147.004 198.437 159.009 198.437 170.658C198.437 194.778 197.445 206.376 174.624 206.376C172.519 206.376 170.5 207.213 169.012 208.701C167.523 210.19 166.687 212.209 166.687 214.314C166.687 216.419 167.523 218.438 169.012 219.927C170.5 221.415 172.519 222.251 174.624 222.251C191.968 222.251 203.715 216.159 209.549 204.134C214.312 194.311 214.312 182.306 214.312 170.658C214.312 146.538 215.304 134.939 238.124 134.939C240.229 134.939 242.248 134.103 243.737 132.614C245.226 131.126 246.062 129.107 246.062 127.001C246.062 124.896 245.226 122.877 243.737 121.389C242.248 119.9 240.229 119.064 238.124 119.064Z" fill="#0450A0"/>
</g>
</svg>
