<svg width="20" height="21" viewBox="0 0 20 21" fill="none" xmlns="http://www.w3.org/2000/svg">
<g id="OfficeChair">
<path id="Vector" d="M19.375 10.3799C19.375 10.5456 19.3092 10.7046 19.1919 10.8218C19.0747 10.939 18.9158 11.0049 18.75 11.0049H17.4477C17.2988 11.8782 16.846 12.6707 16.1694 13.2426C15.4928 13.8144 14.6359 14.1287 13.75 14.1299H10.625V16.0049H12.5C13.163 16.0049 13.7989 16.2683 14.2678 16.7371C14.7366 17.206 15 17.8418 15 18.5049C15 18.6706 14.9342 18.8296 14.8169 18.9468C14.6997 19.064 14.5408 19.1299 14.375 19.1299C14.2092 19.1299 14.0503 19.064 13.9331 18.9468C13.8158 18.8296 13.75 18.6706 13.75 18.5049C13.75 18.1734 13.6183 17.8554 13.3839 17.621C13.1495 17.3866 12.8315 17.2549 12.5 17.2549H10.625V18.5049C10.625 18.6706 10.5592 18.8296 10.4419 18.9468C10.3247 19.064 10.1658 19.1299 10 19.1299C9.83424 19.1299 9.67527 19.064 9.55806 18.9468C9.44085 18.8296 9.375 18.6706 9.375 18.5049V17.2549H7.5C7.16848 17.2549 6.85054 17.3866 6.61612 17.621C6.3817 17.8554 6.25 18.1734 6.25 18.5049C6.25 18.6706 6.18415 18.8296 6.06694 18.9468C5.94973 19.064 5.79076 19.1299 5.625 19.1299C5.45924 19.1299 5.30027 19.064 5.18306 18.9468C5.06585 18.8296 5 18.6706 5 18.5049C5 17.8418 5.26339 17.206 5.73223 16.7371C6.20107 16.2683 6.83696 16.0049 7.5 16.0049H9.375V14.1299H6.25C5.36412 14.1287 4.50718 13.8144 3.83056 13.2426C3.15395 12.6707 2.70122 11.8782 2.55234 11.0049H1.25C1.08424 11.0049 0.925268 10.939 0.808058 10.8218C0.690848 10.7046 0.625 10.5456 0.625 10.3799C0.625 10.2141 0.690848 10.0552 0.808058 9.93794C0.925268 9.82073 1.08424 9.75488 1.25 9.75488H3.125C3.29076 9.75488 3.44973 9.82073 3.56694 9.93794C3.68415 10.0552 3.75 10.2141 3.75 10.3799C3.75 11.0429 4.01339 11.6788 4.48223 12.1476C4.95107 12.6165 5.58696 12.8799 6.25 12.8799H13.75C14.413 12.8799 15.0489 12.6165 15.5178 12.1476C15.9866 11.6788 16.25 11.0429 16.25 10.3799C16.25 10.2141 16.3158 10.0552 16.4331 9.93794C16.5503 9.82073 16.7092 9.75488 16.875 9.75488H18.75C18.9158 9.75488 19.0747 9.82073 19.1919 9.93794C19.3092 10.0552 19.375 10.2141 19.375 10.3799ZM5.30547 11.1986C5.18822 11.0634 5.10139 10.9045 5.05084 10.7328C5.0003 10.5611 4.98722 10.3805 5.0125 10.2033L6.08437 2.70332C6.12811 2.40594 6.27703 2.1341 6.50409 1.93714C6.73115 1.74019 7.0213 1.63117 7.32188 1.62988H12.6781C12.9787 1.63117 13.2689 1.74019 13.4959 1.93714C13.723 2.1341 13.8719 2.40594 13.9156 2.70332L14.9875 10.2033C15.0128 10.3806 14.9997 10.5612 14.9491 10.733C14.8985 10.9048 14.8116 11.0637 14.6943 11.199C14.5769 11.3343 14.4319 11.4427 14.269 11.5171C14.1061 11.5914 13.9291 11.6299 13.75 11.6299H6.25C6.07085 11.6299 5.8938 11.5914 5.73084 11.517C5.56788 11.4426 5.42281 11.334 5.30547 11.1986ZM6.25 10.3799H13.75L12.6781 2.87988H7.32109L6.25 10.3799Z" fill="white"/>
</g>
</svg>
