<svg width="20" height="21" viewBox="0 0 20 21" fill="none" xmlns="http://www.w3.org/2000/svg">
<g id="Plus">
<path id="Vector" d="M17.5 10.4707C17.5 10.6365 17.4342 10.7954 17.3169 10.9126C17.1997 11.0299 17.0408 11.0957 16.875 11.0957H10.625V17.3457C10.625 17.5115 10.5592 17.6704 10.4419 17.7876C10.3247 17.9049 10.1658 17.9707 10 17.9707C9.83424 17.9707 9.67527 17.9049 9.55806 17.7876C9.44085 17.6704 9.375 17.5115 9.375 17.3457V11.0957H3.125C2.95924 11.0957 2.80027 11.0299 2.68306 10.9126C2.56585 10.7954 2.5 10.6365 2.5 10.4707C2.5 10.3049 2.56585 10.146 2.68306 10.0288C2.80027 9.91155 2.95924 9.8457 3.125 9.8457H9.375V3.5957C9.375 3.42994 9.44085 3.27097 9.55806 3.15376C9.67527 3.03655 9.83424 2.9707 10 2.9707C10.1658 2.9707 10.3247 3.03655 10.4419 3.15376C10.5592 3.27097 10.625 3.42994 10.625 3.5957V9.8457H16.875C17.0408 9.8457 17.1997 9.91155 17.3169 10.0288C17.4342 10.146 17.5 10.3049 17.5 10.4707Z" fill="#0450A0"/>
</g>
</svg>
