<svg width="24" height="24" viewBox="0 0 24 24" fill="none" xmlns="http://www.w3.org/2000/svg">
<g id="RocketLaunch">
<path id="Vector" d="M9.72867 17.4319C9.69211 17.5772 8.77805 21 3.75023 21C3.55132 21 3.36056 20.921 3.2199 20.7803C3.07925 20.6397 3.00023 20.4489 3.00023 20.25C3.00023 15.2222 6.42305 14.3081 6.56836 14.2715C6.76143 14.2233 6.96575 14.2537 7.13638 14.3562C7.30701 14.4586 7.42997 14.6246 7.4782 14.8176C7.52644 15.0107 7.496 15.215 7.39359 15.3857C7.29118 15.5563 7.12518 15.6792 6.93211 15.7275C6.84773 15.7509 4.83023 16.3406 4.53586 19.4644C7.65961 19.17 8.25023 17.1562 8.27461 17.0625C8.32434 16.8697 8.44863 16.7045 8.62013 16.6033C8.79164 16.5021 8.99632 16.4732 9.18914 16.523C9.38196 16.5727 9.54713 16.697 9.64831 16.8685C9.74949 17.04 9.7784 17.2447 9.72867 17.4375V17.4319ZM18.4474 11.1131L18.0002 11.5603V17.0287C18.0013 17.2265 17.9631 17.4225 17.8878 17.6053C17.8125 17.7881 17.7016 17.9542 17.5615 18.0937L14.344 21.3094C14.2052 21.4491 14.0402 21.56 13.8584 21.6356C13.6765 21.7112 13.4815 21.7501 13.2846 21.75C13.1221 21.7499 12.9606 21.7237 12.8065 21.6722C12.5418 21.5846 12.3069 21.4248 12.1283 21.2108C11.9497 20.9967 11.8346 20.737 11.7959 20.4609L11.2924 16.8525L7.14773 12.7078L3.54117 12.2044C3.26474 12.1656 3.00462 12.0505 2.79005 11.8719C2.57549 11.6934 2.415 11.4585 2.32664 11.1937C2.23829 10.9289 2.22556 10.6447 2.28991 10.3731C2.35425 10.1015 2.49311 9.85324 2.69086 9.65623L5.90648 6.43873C6.04606 6.29866 6.21209 6.18773 6.39492 6.11241C6.57776 6.03708 6.77375 5.99887 6.97148 5.99998H12.4399L12.8871 5.55279C15.3884 3.05248 18.4024 2.94467 19.5818 3.01498C19.9475 3.03721 20.2924 3.1925 20.5515 3.45156C20.8105 3.71062 20.9658 4.05554 20.988 4.42123C21.0565 5.5978 20.9487 8.61186 18.4484 11.1131H18.4474ZM3.75023 10.7194L7.23305 11.205L10.9399 7.49998H6.97148L3.75023 10.7194ZM8.56148 12L12.0002 15.4387L17.3862 10.0528C18.112 9.33186 18.6751 8.4639 19.0377 7.50726C19.4002 6.55062 19.5538 5.52746 19.488 4.50655C18.4677 4.44327 17.4455 4.59845 16.4899 4.96172C15.5343 5.32499 14.6672 5.88799 13.9465 6.61311L8.56148 12ZM16.5002 13.0603L12.7943 16.7662L13.2818 20.25L16.5002 17.0287V13.0603Z" fill="#0450A0"/>
</g>
</svg>
