<svg width="28" height="29" viewBox="0 0 28 29" fill="none" xmlns="http://www.w3.org/2000/svg">
<g id="Icon">
<path id="Vector" d="M7.83022 7.19399C7.77217 7.01972 7.66076 6.86814 7.51176 6.76073C7.36277 6.65331 7.18374 6.59551 7.00007 6.59551C6.81639 6.59551 6.63737 6.65331 6.48837 6.76073C6.33937 6.86814 6.22796 7.01972 6.16991 7.19399L1.79491 20.319C1.75106 20.4505 1.7391 20.5906 1.76001 20.7277C1.78092 20.8647 1.8341 20.9949 1.91518 21.1073C1.99625 21.2198 2.10289 21.3114 2.22632 21.3746C2.34974 21.4378 2.48641 21.4707 2.62507 21.4707H11.3751C11.5137 21.4707 11.6504 21.4378 11.7738 21.3746C11.8972 21.3114 12.0039 21.2198 12.085 21.1073C12.166 20.9949 12.2192 20.8647 12.2401 20.7277C12.261 20.5906 12.2491 20.4505 12.2052 20.319L7.83022 7.19399ZM3.83913 19.7207L7.00007 10.2379L10.161 19.7207H3.83913ZM22.7501 8.78321C22.7501 7.65832 22.4165 6.5587 21.7915 5.6234C21.1666 4.6881 20.2783 3.95911 19.2391 3.52864C18.1998 3.09817 17.0563 2.98554 15.953 3.20499C14.8497 3.42444 13.8363 3.96612 13.0409 4.76154C12.2455 5.55695 11.7038 6.57036 11.4844 7.67363C11.2649 8.7769 11.3775 9.92046 11.808 10.9597C12.2385 11.999 12.9675 12.8872 13.9028 13.5122C14.8381 14.1371 15.9377 14.4707 17.0626 14.4707C18.5705 14.469 20.0161 13.8692 21.0823 12.803C22.1486 11.7367 22.7483 10.2911 22.7501 8.78321ZM13.1251 8.78321C13.1251 8.00444 13.356 7.24317 13.7887 6.59565C14.2213 5.94813 14.8363 5.44345 15.5558 5.14543C16.2752 4.84741 17.0669 4.76943 17.8307 4.92136C18.5945 5.07329 19.2961 5.4483 19.8468 5.99897C20.3975 6.54964 20.7725 7.25124 20.9244 8.01504C21.0763 8.77884 20.9984 9.57054 20.7003 10.29C20.4023 11.0095 19.8976 11.6245 19.2501 12.0571C18.6026 12.4898 17.8413 12.7207 17.0626 12.7207C16.0183 12.7207 15.0168 12.3059 14.2783 11.5674C13.5399 10.829 13.1251 9.8275 13.1251 8.78321ZM24.5001 16.2207H14.8751C14.643 16.2207 14.4204 16.3129 14.2563 16.477C14.0923 16.6411 14.0001 16.8636 14.0001 17.0957V23.2207C14.0001 23.4528 14.0923 23.6753 14.2563 23.8394C14.4204 24.0035 14.643 24.0957 14.8751 24.0957H24.5001C24.7321 24.0957 24.9547 24.0035 25.1188 23.8394C25.2829 23.6753 25.3751 23.4528 25.3751 23.2207V17.0957C25.3751 16.8636 25.2829 16.6411 25.1188 16.477C24.9547 16.3129 24.7321 16.2207 24.5001 16.2207ZM23.6251 22.3457H15.7501V17.9707H23.6251V22.3457Z" fill="#0450A0"/>
</g>
</svg>
