<svg width="254" height="255" viewBox="0 0 254 255" fill="none" xmlns="http://www.w3.org/2000/svg">
<g opacity="0.04">
<path d="M213.705 127.5C206.76 200.853 142.794 225.846 129.439 230.281C128.652 230.544 127.828 230.682 126.998 230.688V127.5H213.705ZM126.998 48.1252H47.623C45.5179 48.1252 43.499 48.9615 42.0104 50.4501C40.5218 51.9387 39.6855 53.9576 39.6855 56.0627V114.374C39.6855 118.905 39.8873 123.274 40.2908 127.48H126.998V48.1252Z" fill="#231F20" fill-opacity="0.5"/>
<path d="M206.373 40.187H47.623C43.4127 40.187 39.3749 41.8596 36.3977 44.8367C33.4206 47.8138 31.748 51.8517 31.748 56.062V114.373C31.748 203.293 106.976 232.781 122.037 237.781C125.253 238.882 128.743 238.882 131.959 237.781C147.04 232.771 222.248 203.283 222.248 114.363V56.062C222.248 51.8517 220.575 47.8138 217.598 44.8367C214.621 41.8596 210.583 40.187 206.373 40.187ZM206.373 114.393C206.373 116.149 206.373 117.865 206.264 119.562H134.936V56.062H206.373V114.393ZM47.623 56.062H119.061V119.562H47.7322C47.6627 117.865 47.623 116.149 47.623 114.393V56.062ZM49.3495 135.437H119.061V219.694C99.5343 211.399 58.2692 187.944 49.3495 135.437ZM134.936 219.684V135.437H204.647C195.727 187.914 154.501 211.379 134.936 219.684Z" fill="#1F1F1F"/>
</g>
</svg>
