<svg width="20" height="20" viewBox="0 0 20 20" fill="none" xmlns="http://www.w3.org/2000/svg">
<g id="Sunglasses">
<path id="Vector" d="M15.625 3.11499C15.4592 3.11499 15.3003 3.18084 15.1831 3.29805C15.0658 3.41526 15 3.57423 15 3.73999C15 3.90575 15.0658 4.06472 15.1831 4.18193C15.3003 4.29914 15.4592 4.36499 15.625 4.36499C15.9565 4.36499 16.2745 4.49669 16.5089 4.73111C16.7433 4.96553 16.875 5.28347 16.875 5.61499V9.98999H3.125V5.61499C3.125 5.28347 3.2567 4.96553 3.49112 4.73111C3.72554 4.49669 4.04348 4.36499 4.375 4.36499C4.54076 4.36499 4.69973 4.29914 4.81694 4.18193C4.93415 4.06472 5 3.90575 5 3.73999C5 3.57423 4.93415 3.41526 4.81694 3.29805C4.69973 3.18084 4.54076 3.11499 4.375 3.11499C3.71196 3.11499 3.07607 3.37838 2.60723 3.84722C2.13839 4.31606 1.875 4.95195 1.875 5.61499V12.8025C1.875 13.7142 2.23716 14.5885 2.88182 15.2332C3.52648 15.8778 4.40082 16.24 5.3125 16.24C6.22418 16.24 7.09852 15.8778 7.74318 15.2332C8.38784 14.5885 8.75 13.7142 8.75 12.8025V11.24H11.25V12.8025C11.25 13.7142 11.6122 14.5885 12.2568 15.2332C12.9015 15.8778 13.7758 16.24 14.6875 16.24C15.5992 16.24 16.4735 15.8778 17.1182 15.2332C17.7628 14.5885 18.125 13.7142 18.125 12.8025V5.61499C18.125 4.95195 17.8616 4.31606 17.3928 3.84722C16.9239 3.37838 16.288 3.11499 15.625 3.11499ZM16.6117 13.8423L14.0086 11.24H16.875V12.8025C16.8756 13.1657 16.785 13.5232 16.6117 13.8423ZM3.125 12.8025V11.4986L6.35234 14.7267C6.01914 14.9067 5.64491 14.9972 5.26627 14.9892C4.88763 14.9812 4.51756 14.875 4.19226 14.6811C3.86697 14.4871 3.5976 14.212 3.41052 13.8827C3.22344 13.5534 3.12506 13.1812 3.125 12.8025ZM7.5 12.8025C7.50056 13.1657 7.41004 13.5232 7.23672 13.8423L4.63359 11.24H7.5V12.8025ZM12.5 12.8025V11.4986L15.7273 14.7267C15.3941 14.9067 15.0199 14.9972 14.6413 14.9892C14.2626 14.9812 13.8926 14.875 13.5673 14.6811C13.242 14.4871 12.9726 14.212 12.7855 13.8827C12.5984 13.5534 12.5001 13.1812 12.5 12.8025Z" fill="white"/>
</g>
</svg>
