<svg width="17" height="17" viewBox="0 0 17 17" fill="none" xmlns="http://www.w3.org/2000/svg">
<path fill-rule="evenodd" clip-rule="evenodd" d="M16.8337 8.47054C16.8337 13.073 13.1028 16.8039 8.50033 16.8039C3.89783 16.8039 0.166992 13.073 0.166992 8.47054C0.166992 3.86804 3.89783 0.137207 8.50033 0.137207C13.1028 0.137207 16.8337 3.86804 16.8337 8.47054ZM8.79866 6.28887C7.98866 6.62637 6.36866 7.32387 3.93949 8.38221C3.54449 8.53971 3.33783 8.69304 3.31949 8.84304C3.28699 9.09637 3.60533 9.19637 4.03783 9.33221L4.21949 9.39054C4.64449 9.52887 5.21783 9.69054 5.51533 9.69721C5.78533 9.70304 6.08616 9.59137 6.41866 9.36387C8.68866 7.83054 9.86033 7.05637 9.93366 7.03971C9.98616 7.02804 10.0578 7.01304 10.1062 7.05637C10.1553 7.09971 10.1503 7.18137 10.1453 7.20387C10.1137 7.33804 8.86699 8.49721 8.22199 9.09637C8.02116 9.28387 7.87783 9.41637 7.84866 9.44637C7.7846 9.51232 7.71931 9.57705 7.65283 9.64054C7.25783 10.0214 6.96116 10.3072 7.66949 10.7739C8.00949 10.9989 8.28199 11.1839 8.55366 11.3689C8.85033 11.5705 9.14616 11.7722 9.52866 12.023C9.62699 12.0872 9.72032 12.153 9.81032 12.218C10.1562 12.4647 10.4662 12.6847 10.8495 12.6497C11.072 12.6297 11.302 12.4205 11.4187 11.7955C11.6953 10.3205 12.2378 7.12221 12.3628 5.80387C12.3703 5.69452 12.3656 5.58467 12.3487 5.47637C12.3387 5.38924 12.2964 5.30899 12.2303 5.25137C12.1303 5.16971 11.9762 5.15304 11.9078 5.15387C11.5945 5.15971 11.1137 5.32637 8.79949 6.28887H8.79866Z" fill="#0450A0"/>
</svg>
