<svg width="20" height="20" viewBox="0 0 20 20" fill="none" xmlns="http://www.w3.org/2000/svg">
<g id="UserGear">
<path id="Vector" d="M11.2498 12.3087C12.2296 11.6985 12.984 10.7857 13.3988 9.70859C13.8136 8.63145 13.8664 7.44851 13.549 6.33873C13.2317 5.22896 12.5615 4.25272 11.6399 3.55774C10.7184 2.86275 9.5955 2.48682 8.44124 2.48682C7.28698 2.48682 6.16412 2.86275 5.24254 3.55774C4.32097 4.25272 3.65081 5.22896 3.33347 6.33873C3.01612 7.44851 3.06885 8.63145 3.48369 9.70859C3.89852 10.7857 4.65288 11.6985 5.63265 12.3087C4.01936 12.8368 2.5678 13.8235 1.40061 15.2126C1.34593 15.2751 1.30426 15.3479 1.27804 15.4268C1.25182 15.5056 1.24158 15.5889 1.24791 15.6717C1.25425 15.7545 1.27704 15.8353 1.31495 15.9092C1.35285 15.9831 1.40511 16.0487 1.46868 16.1022C1.53224 16.1557 1.60583 16.196 1.68515 16.2207C1.76446 16.2454 1.8479 16.2541 1.9306 16.2462C2.0133 16.2383 2.09359 16.214 2.16678 16.1747C2.23997 16.1354 2.30459 16.0819 2.35686 16.0173C3.92561 14.1454 6.08655 13.1149 8.43733 13.1149C10.7881 13.1149 12.9491 14.1454 14.5209 16.0173C14.6276 16.1443 14.7804 16.2237 14.9457 16.2381C15.111 16.2524 15.2752 16.2006 15.4022 16.0938C15.5292 15.9871 15.6086 15.8343 15.623 15.6691C15.6373 15.5038 15.5854 15.3396 15.4787 15.2126C14.3108 13.8235 12.8592 12.8368 11.2498 12.3087ZM4.37483 7.80244C4.37483 6.99895 4.61309 6.21351 5.05949 5.54544C5.50588 4.87736 6.14036 4.35666 6.88268 4.04918C7.62501 3.7417 8.44184 3.66125 9.22989 3.818C10.0179 3.97475 10.7418 4.36167 11.31 4.92982C11.8781 5.49797 12.265 6.22184 12.4218 7.00989C12.5785 7.79793 12.4981 8.61477 12.1906 9.35709C11.8831 10.0994 11.3624 10.7339 10.6943 11.1803C10.0263 11.6267 9.24082 11.8649 8.43733 11.8649C7.36027 11.8637 6.32768 11.4353 5.56608 10.6737C4.80448 9.91209 4.37607 8.8795 4.37483 7.80244ZM19.0819 11.1673L18.7178 10.9571C18.7605 10.731 18.7605 10.4989 18.7178 10.2728L19.0819 10.0626C19.2255 9.97972 19.3302 9.84319 19.3732 9.68305C19.4161 9.52291 19.3937 9.35228 19.3108 9.20869C19.2279 9.0651 19.0914 8.96032 18.9312 8.91739C18.7711 8.87446 18.6005 8.8969 18.4569 8.97978L18.092 9.19072C17.9174 9.04092 17.7167 8.92465 17.4998 8.84775V8.42744C17.4998 8.26168 17.434 8.10271 17.3168 7.9855C17.1996 7.86829 17.0406 7.80244 16.8748 7.80244C16.7091 7.80244 16.5501 7.86829 16.4329 7.9855C16.3157 8.10271 16.2498 8.26168 16.2498 8.42744V8.84775C16.033 8.92465 15.8322 9.04092 15.6576 9.19072L15.2928 8.97978C15.2217 8.93875 15.1432 8.91211 15.0618 8.90141C14.9804 8.8907 14.8977 8.89613 14.8184 8.91739C14.7391 8.93864 14.6648 8.97531 14.5997 9.02529C14.5346 9.07527 14.4799 9.13759 14.4389 9.20869C14.3979 9.27979 14.3712 9.35827 14.3605 9.43967C14.3498 9.52106 14.3552 9.60376 14.3765 9.68305C14.3978 9.76234 14.4344 9.83667 14.4844 9.9018C14.5344 9.96692 14.5967 10.0216 14.6678 10.0626L15.0319 10.2728C14.9892 10.4989 14.9892 10.731 15.0319 10.9571L14.6678 11.1673C14.5242 11.2502 14.4194 11.3867 14.3765 11.5468C14.3336 11.707 14.356 11.8776 14.4389 12.0212C14.5218 12.1648 14.6583 12.2696 14.8184 12.3125C14.9786 12.3554 15.1492 12.333 15.2928 12.2501L15.6576 12.0392C15.8322 12.189 16.033 12.3052 16.2498 12.3821V12.8024C16.2498 12.9682 16.3157 13.1272 16.4329 13.2444C16.5501 13.3616 16.7091 13.4274 16.8748 13.4274C17.0406 13.4274 17.1996 13.3616 17.3168 13.2444C17.434 13.1272 17.4998 12.9682 17.4998 12.8024V12.3821C17.7167 12.3052 17.9174 12.189 18.092 12.0392L18.4569 12.2501C18.5518 12.3052 18.6596 12.334 18.7694 12.3337C18.907 12.3337 19.0408 12.2884 19.15 12.2046C19.2592 12.1208 19.3377 12.0034 19.3733 11.8704C19.4089 11.7375 19.3997 11.5965 19.347 11.4694C19.2943 11.3422 19.2011 11.236 19.0819 11.1673ZM16.2498 10.6149C16.2498 10.4913 16.2865 10.3705 16.3552 10.2677C16.4238 10.1649 16.5215 10.0848 16.6357 10.0375C16.7499 9.99021 16.8755 9.97783 16.9968 10.002C17.118 10.0261 17.2294 10.0856 17.3168 10.173C17.4042 10.2604 17.4637 10.3718 17.4878 10.493C17.5119 10.6142 17.4996 10.7399 17.4523 10.8541C17.405 10.9683 17.3248 11.0659 17.2221 11.1346C17.1193 11.2033 16.9984 11.2399 16.8748 11.2399C16.7091 11.2399 16.5501 11.1741 16.4329 11.0569C16.3157 10.9397 16.2498 10.7807 16.2498 10.6149Z" fill="white"/>
</g>
</svg>
