<svg width="20" height="20" viewBox="0 0 20 20" fill="none" xmlns="http://www.w3.org/2000/svg">
<g id="UserFocus">
<path id="Vector" d="M17.5 3.73999V5.92749C17.5 6.09325 17.4342 6.25222 17.3169 6.36943C17.1997 6.48664 17.0408 6.55249 16.875 6.55249C16.7092 6.55249 16.5503 6.48664 16.4331 6.36943C16.3158 6.25222 16.25 6.09325 16.25 5.92749V3.73999H14.0625C13.8967 3.73999 13.7378 3.67414 13.6206 3.55693C13.5033 3.43972 13.4375 3.28075 13.4375 3.11499C13.4375 2.94923 13.5033 2.79026 13.6206 2.67305C13.7378 2.55584 13.8967 2.48999 14.0625 2.48999H16.25C16.5815 2.48999 16.8995 2.62169 17.1339 2.85611C17.3683 3.09053 17.5 3.40847 17.5 3.73999ZM16.875 13.4275C16.7092 13.4275 16.5503 13.4933 16.4331 13.6105C16.3158 13.7278 16.25 13.8867 16.25 14.0525V16.24H14.0625C13.8967 16.24 13.7378 16.3058 13.6206 16.423C13.5033 16.5403 13.4375 16.6992 13.4375 16.865C13.4375 17.0308 13.5033 17.1897 13.6206 17.3069C13.7378 17.4241 13.8967 17.49 14.0625 17.49H16.25C16.5815 17.49 16.8995 17.3583 17.1339 17.1239C17.3683 16.8895 17.5 16.5715 17.5 16.24V14.0525C17.5 13.8867 17.4342 13.7278 17.3169 13.6105C17.1997 13.4933 17.0408 13.4275 16.875 13.4275ZM5.9375 16.24H3.75V14.0525C3.75 13.8867 3.68415 13.7278 3.56694 13.6105C3.44973 13.4933 3.29076 13.4275 3.125 13.4275C2.95924 13.4275 2.80027 13.4933 2.68306 13.6105C2.56585 13.7278 2.5 13.8867 2.5 14.0525V16.24C2.5 16.5715 2.6317 16.8895 2.86612 17.1239C3.10054 17.3583 3.41848 17.49 3.75 17.49H5.9375C6.10326 17.49 6.26223 17.4241 6.37944 17.3069C6.49665 17.1897 6.5625 17.0308 6.5625 16.865C6.5625 16.6992 6.49665 16.5403 6.37944 16.423C6.26223 16.3058 6.10326 16.24 5.9375 16.24ZM3.125 6.55249C3.29076 6.55249 3.44973 6.48664 3.56694 6.36943C3.68415 6.25222 3.75 6.09325 3.75 5.92749V3.73999H5.9375C6.10326 3.73999 6.26223 3.67414 6.37944 3.55693C6.49665 3.43972 6.5625 3.28075 6.5625 3.11499C6.5625 2.94923 6.49665 2.79026 6.37944 2.67305C6.26223 2.55584 6.10326 2.48999 5.9375 2.48999H3.75C3.41848 2.48999 3.10054 2.62169 2.86612 2.85611C2.6317 3.09053 2.5 3.40847 2.5 3.73999V5.92749C2.5 6.09325 2.56585 6.25222 2.68306 6.36943C2.80027 6.48664 2.95924 6.55249 3.125 6.55249ZM13.75 13.74C13.6529 13.7402 13.5571 13.7178 13.4702 13.6745C13.3832 13.6313 13.3076 13.5684 13.2492 13.4908C12.8708 12.9862 12.3801 12.5767 11.816 12.2947C11.2519 12.0126 10.6299 11.8658 9.99922 11.8658C9.36854 11.8658 8.74651 12.0126 8.18241 12.2947C7.61831 12.5767 7.12763 12.9862 6.74922 13.4908C6.64956 13.6234 6.5013 13.711 6.33705 13.7343C6.17281 13.7576 6.00605 13.7147 5.87344 13.615C5.74083 13.5153 5.65324 13.3671 5.62995 13.2028C5.60665 13.0386 5.64955 12.8718 5.74922 12.7392C6.30312 11.9976 7.04134 11.4137 7.89062 11.0455C7.42524 10.6206 7.09919 10.0649 6.95526 9.4514C6.81133 8.83788 6.85624 8.19519 7.0841 7.60766C7.31197 7.02013 7.71213 6.51522 8.23209 6.15919C8.75204 5.80315 9.36749 5.61264 9.99766 5.61264C10.6278 5.61264 11.2433 5.80315 11.7632 6.15919C12.2832 6.51522 12.6833 7.02013 12.9112 7.60766C13.1391 8.19519 13.184 8.83788 13.0401 9.4514C12.8961 10.0649 12.5701 10.6206 12.1047 11.0455C12.9545 11.4134 13.6933 11.9973 14.2477 12.7392C14.3174 12.8319 14.36 12.9422 14.3706 13.0577C14.3812 13.1732 14.3595 13.2894 14.3079 13.3933C14.2562 13.4971 14.1767 13.5846 14.0782 13.6458C13.9796 13.7071 13.866 13.7397 13.75 13.74ZM10 10.615C10.3708 10.615 10.7334 10.505 11.0417 10.299C11.35 10.093 11.5904 9.80013 11.7323 9.45752C11.8742 9.11491 11.9113 8.73791 11.839 8.3742C11.7666 8.01048 11.588 7.67639 11.3258 7.41416C11.0636 7.15194 10.7295 6.97336 10.3658 6.90102C10.0021 6.82867 9.62508 6.8658 9.28247 7.00772C8.93986 7.14963 8.64702 7.38995 8.44099 7.6983C8.23497 8.00664 8.125 8.36915 8.125 8.73999C8.125 9.23727 8.32254 9.71418 8.67417 10.0658C9.02581 10.4174 9.50272 10.615 10 10.615Z" fill="white"/>
</g>
</svg>
