<svg width="17" height="17" viewBox="0 0 17 17" fill="none" xmlns="http://www.w3.org/2000/svg">
<path fill-rule="evenodd" clip-rule="evenodd" d="M1.34103 1.31173C0.169922 2.48283 0.169922 4.3677 0.169922 8.13743V8.80383C0.169922 12.5736 0.169922 14.4584 1.34103 15.6295C2.51213 16.8006 4.397 16.8006 8.16672 16.8006H8.83312C12.6028 16.8006 14.4877 16.8006 15.6588 15.6295C16.8299 14.4584 16.8299 12.5736 16.8299 8.80382V8.13743C16.8299 4.3677 16.8299 2.48283 15.6588 1.31173C14.4877 0.140625 12.6028 0.140625 8.83312 0.140625H8.16672C4.39699 0.140625 2.51213 0.140625 1.34103 1.31173ZM2.98129 5.20757C3.07153 9.53917 5.23731 12.1423 9.0344 12.1423H9.24963V9.6641C10.6449 9.80294 11.7 10.8234 12.1234 12.1423H14.0949C13.5535 10.1709 12.1303 9.081 11.2418 8.6645C12.1303 8.15082 13.3798 6.90133 13.6783 5.20757H11.8873C11.4986 6.58202 10.3464 7.8315 9.24963 7.94951V5.20757H7.45863V10.0112C6.34796 9.73352 4.94577 8.38685 4.8833 5.20757H2.98129Z" fill="#0450A0"/>
</svg>
