<svg width="20" height="20" viewBox="0 0 20 20" fill="none" xmlns="http://www.w3.org/2000/svg">
<g id="BracketsCurly">
<path id="Vector" d="M3.37354 9.98999C3.6384 10.2078 3.85183 10.4816 3.99854 10.7916C4.37354 11.565 4.37354 12.5103 4.37354 13.4275C4.37354 15.3267 4.45166 16.24 6.24854 16.24C6.4143 16.24 6.57327 16.3058 6.69048 16.423C6.80769 16.5403 6.87354 16.6992 6.87354 16.865C6.87354 17.0308 6.80769 17.1897 6.69048 17.3069C6.57327 17.4241 6.4143 17.49 6.24854 17.49C4.88291 17.49 3.95791 17.0103 3.49854 16.0634C3.12354 15.29 3.12354 14.3447 3.12354 13.4275C3.12354 11.5283 3.04541 10.615 1.24854 10.615C1.08277 10.615 0.923804 10.5491 0.806593 10.4319C0.689383 10.3147 0.623535 10.1558 0.623535 9.98999C0.623535 9.82423 0.689383 9.66526 0.806593 9.54805C0.923804 9.43084 1.08277 9.36499 1.24854 9.36499C3.04541 9.36499 3.12354 8.45171 3.12354 6.55249C3.12354 5.63687 3.12354 4.68999 3.49854 3.91655C3.95947 2.96968 4.88447 2.48999 6.2501 2.48999C6.41586 2.48999 6.57483 2.55584 6.69204 2.67305C6.80925 2.79026 6.8751 2.94923 6.8751 3.11499C6.8751 3.28075 6.80925 3.43972 6.69204 3.55693C6.57483 3.67414 6.41586 3.73999 6.2501 3.73999C4.45322 3.73999 4.3751 4.65327 4.3751 6.55249C4.3751 7.46812 4.3751 8.41499 4.0001 9.18843C3.85294 9.49857 3.63897 9.7723 3.37354 9.98999ZM18.7501 9.36499C16.9532 9.36499 16.8751 8.45171 16.8751 6.55249C16.8751 5.63687 16.8751 4.68999 16.5001 3.91655C16.0407 2.96968 15.1157 2.48999 13.7501 2.48999C13.5843 2.48999 13.4254 2.55584 13.3082 2.67305C13.1909 2.79026 13.1251 2.94923 13.1251 3.11499C13.1251 3.28075 13.1909 3.43972 13.3082 3.55693C13.4254 3.67414 13.5843 3.73999 13.7501 3.73999C15.547 3.73999 15.6251 4.65327 15.6251 6.55249C15.6251 7.46812 15.6251 8.41499 16.0001 9.18843C16.1468 9.49841 16.3602 9.77213 16.6251 9.98999C16.3602 10.2078 16.1468 10.4816 16.0001 10.7916C15.6251 11.565 15.6251 12.5103 15.6251 13.4275C15.6251 15.3267 15.547 16.24 13.7501 16.24C13.5843 16.24 13.4254 16.3058 13.3082 16.423C13.1909 16.5403 13.1251 16.6992 13.1251 16.865C13.1251 17.0308 13.1909 17.1897 13.3082 17.3069C13.4254 17.4241 13.5843 17.49 13.7501 17.49C15.1157 17.49 16.0407 17.0103 16.5001 16.0634C16.8751 15.29 16.8751 14.3447 16.8751 13.4275C16.8751 11.5283 16.9532 10.615 18.7501 10.615C18.9159 10.615 19.0748 10.5491 19.192 10.4319C19.3092 10.3147 19.3751 10.1558 19.3751 9.98999C19.3751 9.82423 19.3092 9.66526 19.192 9.54805C19.0748 9.43084 18.9159 9.36499 18.7501 9.36499Z" fill="white"/>
</g>
</svg>
