<svg width="20" height="21" viewBox="0 0 20 21" fill="none" xmlns="http://www.w3.org/2000/svg">
<g id="Bug">
<path id="Vector" d="M11.25 7.56738C11.25 7.38196 11.305 7.2007 11.408 7.04653C11.511 6.89236 11.6574 6.7722 11.8287 6.70124C12 6.63029 12.1885 6.61172 12.3704 6.64789C12.5523 6.68407 12.7193 6.77335 12.8504 6.90447C12.9815 7.03558 13.0708 7.20262 13.107 7.38448C13.1432 7.56634 13.1246 7.75484 13.0536 7.92615C12.9827 8.09745 12.8625 8.24387 12.7083 8.34688C12.5542 8.4499 12.3729 8.50488 12.1875 8.50488C11.9389 8.50488 11.7004 8.40611 11.5246 8.23029C11.3488 8.05448 11.25 7.81602 11.25 7.56738ZM7.8125 6.62988C7.62708 6.62988 7.44582 6.68486 7.29165 6.78788C7.13748 6.89089 7.01732 7.03731 6.94636 7.20861C6.87541 7.37992 6.85684 7.56842 6.89301 7.75028C6.92919 7.93213 7.01848 8.09918 7.14959 8.23029C7.2807 8.3614 7.44775 8.45069 7.6296 8.48687C7.81146 8.52304 7.99996 8.50447 8.17127 8.43352C8.34257 8.36256 8.48899 8.2424 8.592 8.08823C8.69502 7.93406 8.75 7.7528 8.75 7.56738C8.75 7.31874 8.65123 7.08028 8.47541 6.90447C8.2996 6.72865 8.06114 6.62988 7.8125 6.62988ZM16.875 11.6299C16.8767 12.2366 16.7979 12.8408 16.6406 13.4268L18.3781 14.1861C18.5076 14.2451 18.613 14.3464 18.6771 14.4734C18.7411 14.6004 18.76 14.7454 18.7305 14.8846C18.701 15.0237 18.6249 15.1486 18.5148 15.2386C18.4047 15.3287 18.2672 15.3785 18.125 15.3799C18.0389 15.3801 17.9538 15.3622 17.875 15.3275L16.2016 14.5986C15.6417 15.7686 14.7623 16.7563 13.665 17.4478C12.5676 18.1392 11.297 18.5061 10 18.5061C8.70297 18.5061 7.43241 18.1392 6.33504 17.4478C5.23768 16.7563 4.35829 15.7686 3.79844 14.5986L2.125 15.3275C2.04624 15.3622 1.96107 15.3801 1.875 15.3799C1.73148 15.3798 1.59236 15.3303 1.48102 15.2398C1.36968 15.1492 1.29289 15.0231 1.26357 14.8826C1.23424 14.7421 1.25416 14.5958 1.31998 14.4683C1.38579 14.3407 1.4935 14.2397 1.625 14.1822L3.35938 13.4268C3.20209 12.8408 3.12328 12.2366 3.125 11.6299V11.0049H1.25C1.08424 11.0049 0.925268 10.939 0.808058 10.8218C0.690848 10.7046 0.625 10.5456 0.625 10.3799C0.625 10.2141 0.690848 10.0551 0.808058 9.93794C0.925268 9.82073 1.08424 9.75488 1.25 9.75488H3.125V9.12988C3.12328 8.52319 3.20209 7.91895 3.35938 7.333L1.625 6.57754C1.548 6.54592 1.47809 6.49925 1.41938 6.44025C1.36066 6.38125 1.31432 6.31112 1.28308 6.23397C1.25183 6.15683 1.23631 6.07421 1.23743 5.99098C1.23855 5.90776 1.25628 5.82559 1.28958 5.74931C1.32288 5.67302 1.37108 5.60416 1.43136 5.54676C1.49164 5.48936 1.56277 5.44458 1.64059 5.41504C1.71841 5.3855 1.80135 5.37181 1.88453 5.37476C1.96771 5.37771 2.04947 5.39725 2.125 5.43222L3.79844 6.16113C4.35829 4.99115 5.23768 4.00341 6.33504 3.31199C7.43241 2.62056 8.70297 2.25366 10 2.25366C11.297 2.25366 12.5676 2.62056 13.665 3.31199C14.7623 4.00341 15.6417 4.99115 16.2016 6.16113L17.875 5.42988C18.0261 5.36783 18.1956 5.36743 18.347 5.42875C18.4984 5.49008 18.6198 5.60826 18.6852 5.75799C18.7505 5.90772 18.7547 6.07709 18.6967 6.22983C18.6387 6.38257 18.5233 6.50654 18.375 6.57519L16.6406 7.33691C16.7979 7.92286 16.8767 8.5271 16.875 9.13379V9.75879H18.75C18.9158 9.75879 19.0747 9.82463 19.1919 9.94184C19.3092 10.0591 19.375 10.218 19.375 10.3838C19.375 10.5495 19.3092 10.7085 19.1919 10.8257C19.0747 10.9429 18.9158 11.0088 18.75 11.0088H16.875V11.6299ZM4.375 9.75488H15.625V9.12988C15.625 7.63804 15.0324 6.2073 13.9775 5.1524C12.9226 4.09751 11.4918 3.50488 10 3.50488C8.50816 3.50488 7.07742 4.09751 6.02252 5.1524C4.96763 6.2073 4.375 7.63804 4.375 9.12988V9.75488ZM9.375 17.2189V11.0049H4.375V11.6299C4.37664 13.0129 4.8872 14.347 5.80933 15.3778C6.73146 16.4085 8.00067 17.0639 9.375 17.2189ZM15.625 11.6299V11.0049H10.625V17.2189C11.9993 17.0639 13.2685 16.4085 14.1907 15.3778C15.1128 14.347 15.6234 13.0129 15.625 11.6299Z" fill="white"/>
</g>
</svg>
