<svg width="20" height="20" viewBox="0 0 20 20" fill="none" xmlns="http://www.w3.org/2000/svg">
<g id="HandCoins">
<path id="Vector" d="M17.9945 11.0103C17.762 10.8314 17.4913 10.7085 17.2035 10.6511C16.9157 10.5938 16.6185 10.6036 16.3352 10.6798L13.0664 11.4314C13.1425 11.1101 13.1448 10.7758 13.0733 10.4535C13.0017 10.1313 12.8582 9.82933 12.6534 9.57041C12.4486 9.31148 12.1878 9.10227 11.8907 8.95846C11.5935 8.81464 11.2676 8.73996 10.9375 8.73999H7.02656C6.69812 8.73917 6.37278 8.80344 6.06932 8.92908C5.76587 9.05473 5.49032 9.23926 5.25859 9.47202L3.49141 11.24H1.25C0.918479 11.24 0.600537 11.3717 0.366117 11.6061C0.131696 11.8405 0 12.1585 0 12.49L0 15.615C0 15.9465 0.131696 16.2645 0.366117 16.4989C0.600537 16.7333 0.918479 16.865 1.25 16.865H9.375C9.4261 16.865 9.47701 16.8587 9.52656 16.8462L14.5266 15.5962C14.5584 15.5887 14.5896 15.5782 14.6195 15.565L17.6562 14.2728L17.6906 14.2572C17.9825 14.1113 18.2324 13.8936 18.4168 13.6245C18.6013 13.3554 18.7142 13.0437 18.7449 12.7189C18.7756 12.3941 18.7231 12.0668 18.5924 11.7679C18.4617 11.469 18.257 11.2083 17.9977 11.0103H17.9945ZM1.25 12.49H3.125V15.615H1.25V12.49ZM17.143 13.1314L14.1742 14.3955L9.29688 15.615H4.375V12.1236L6.14297 10.3564C6.25862 10.2398 6.39629 10.1474 6.54798 10.0845C6.69967 10.0216 6.86235 9.98947 7.02656 9.98999H10.9375C11.1861 9.98999 11.4246 10.0888 11.6004 10.2646C11.7762 10.4404 11.875 10.6789 11.875 10.9275C11.875 11.1761 11.7762 11.4146 11.6004 11.5904C11.4246 11.7662 11.1861 11.865 10.9375 11.865H8.75C8.58424 11.865 8.42527 11.9308 8.30806 12.048C8.19085 12.1653 8.125 12.3242 8.125 12.49C8.125 12.6558 8.19085 12.8147 8.30806 12.9319C8.42527 13.0491 8.58424 13.115 8.75 13.115H11.25C11.297 13.1149 11.3439 13.1096 11.3898 13.0994L16.6242 11.8955L16.6484 11.8892C16.8082 11.8449 16.9788 11.8612 17.1273 11.935C17.2758 12.0088 17.3917 12.1349 17.4528 12.2891C17.5139 12.4433 17.5158 12.6146 17.4582 12.7701C17.4005 12.9256 17.2874 13.0543 17.1406 13.1314H17.143ZM12.8125 7.48999C12.9669 7.49017 13.1211 7.47762 13.2734 7.45249C13.4448 7.96151 13.7583 8.41082 14.177 8.74729C14.5956 9.08377 15.1018 9.29334 15.6358 9.35122C16.1698 9.40911 16.7091 9.3129 17.1901 9.07396C17.6712 8.83502 18.0737 8.46335 18.3502 8.00288C18.6267 7.54242 18.7655 7.01241 18.7503 6.47554C18.7351 5.93866 18.5665 5.41736 18.2644 4.97327C17.9624 4.52918 17.5394 4.18087 17.0457 3.96952C16.5519 3.75817 16.008 3.69262 15.4781 3.78062C15.3131 3.29018 15.016 2.85478 14.6195 2.52232C14.223 2.18986 13.7424 1.97323 13.2307 1.89627C12.7191 1.81931 12.196 1.88501 11.7193 2.08614C11.2425 2.28726 10.8305 2.61601 10.5285 3.03621C10.2266 3.45641 10.0464 3.95178 10.0078 4.46778C9.96921 4.98379 10.0737 5.50044 10.3098 5.96088C10.546 6.42131 10.9045 6.80768 11.3461 7.07747C11.7876 7.34725 12.2951 7.49 12.8125 7.48999ZM17.5 6.55249C17.5 6.86152 17.4084 7.16362 17.2367 7.42057C17.065 7.67752 16.821 7.87779 16.5354 7.99605C16.2499 8.11432 15.9358 8.14526 15.6327 8.08497C15.3296 8.02468 15.0512 7.87587 14.8326 7.65735C14.6141 7.43883 14.4653 7.16042 14.405 6.85732C14.3447 6.55422 14.3757 6.24006 14.4939 5.95455C14.6122 5.66904 14.8125 5.42501 15.0694 5.25332C15.3264 5.08163 15.6285 4.98999 15.9375 4.98999C16.3519 4.98999 16.7493 5.15461 17.0424 5.44764C17.3354 5.74066 17.5 6.13809 17.5 6.55249ZM12.8125 3.11499C13.1534 3.11516 13.4848 3.22679 13.7563 3.43287C14.0279 3.63894 14.2245 3.92815 14.3164 4.2564C13.9963 4.48163 13.7267 4.77119 13.5249 5.10657C13.3232 5.44194 13.1936 5.81574 13.1445 6.20405C13.0354 6.22762 12.9241 6.23966 12.8125 6.23999C12.3981 6.23999 12.0007 6.07537 11.7076 5.78235C11.4146 5.48932 11.25 5.09189 11.25 4.67749C11.25 4.26309 11.4146 3.86566 11.7076 3.57264C12.0007 3.27961 12.3981 3.11499 12.8125 3.11499Z" fill="white"/>
</g>
</svg>
