<svg width="12" height="12" viewBox="0 0 12 12" fill="none" xmlns="http://www.w3.org/2000/svg">
<g id="Plus">
<path id="Vector" d="M10.125 5.98022C10.125 6.07139 10.0888 6.15883 10.0243 6.22329C9.95985 6.28776 9.87242 6.32397 9.78125 6.32397H6.34375V9.76147C6.34375 9.85264 6.30753 9.94008 6.24307 10.0045C6.1786 10.069 6.09117 10.1052 6 10.1052C5.90883 10.1052 5.8214 10.069 5.75693 10.0045C5.69247 9.94008 5.65625 9.85264 5.65625 9.76147V6.32397H2.21875C2.12758 6.32397 2.04015 6.28776 1.97568 6.22329C1.91122 6.15883 1.875 6.07139 1.875 5.98022C1.875 5.88906 1.91122 5.80162 1.97568 5.73716C2.04015 5.67269 2.12758 5.63647 2.21875 5.63647H5.65625V2.19897C5.65625 2.10781 5.69247 2.02037 5.75693 1.95591C5.8214 1.89144 5.90883 1.85522 6 1.85522C6.09117 1.85522 6.1786 1.89144 6.24307 1.95591C6.30753 2.02037 6.34375 2.10781 6.34375 2.19897V5.63647H9.78125C9.87242 5.63647 9.95985 5.67269 10.0243 5.73716C10.0888 5.80162 10.125 5.88906 10.125 5.98022Z" fill="white"/>
</g>
</svg>
