<svg width="20" height="21" viewBox="0 0 20 21" fill="none" xmlns="http://www.w3.org/2000/svg">
<g id="ProjectorScreenChart">
<path id="Vector" d="M6.875 11.6299V10.3799C6.875 10.2141 6.94085 10.0552 7.05806 9.93794C7.17527 9.82073 7.33424 9.75488 7.5 9.75488C7.66576 9.75488 7.82473 9.82073 7.94194 9.93794C8.05915 10.0552 8.125 10.2141 8.125 10.3799V11.6299C8.125 11.7956 8.05915 11.9546 7.94194 12.0718C7.82473 12.189 7.66576 12.2549 7.5 12.2549C7.33424 12.2549 7.17527 12.189 7.05806 12.0718C6.94085 11.9546 6.875 11.7956 6.875 11.6299ZM10 12.2549C10.1658 12.2549 10.3247 12.189 10.4419 12.0718C10.5592 11.9546 10.625 11.7956 10.625 11.6299V9.75488C10.625 9.58912 10.5592 9.43015 10.4419 9.31294C10.3247 9.19573 10.1658 9.12988 10 9.12988C9.83424 9.12988 9.67527 9.19573 9.55806 9.31294C9.44085 9.43015 9.375 9.58912 9.375 9.75488V11.6299C9.375 11.7956 9.44085 11.9546 9.55806 12.0718C9.67527 12.189 9.83424 12.2549 10 12.2549ZM12.5 12.2549C12.6658 12.2549 12.8247 12.189 12.9419 12.0718C13.0592 11.9546 13.125 11.7956 13.125 11.6299V9.12988C13.125 8.96412 13.0592 8.80515 12.9419 8.68794C12.8247 8.57073 12.6658 8.50488 12.5 8.50488C12.3342 8.50488 12.1753 8.57073 12.0581 8.68794C11.9408 8.80515 11.875 8.96412 11.875 9.12988V11.6299C11.875 11.7956 11.9408 11.9546 12.0581 12.0718C12.1753 12.189 12.3342 12.2549 12.5 12.2549ZM16.875 6.62988V14.1299H17.5C17.6658 14.1299 17.8247 14.1957 17.9419 14.3129C18.0592 14.4302 18.125 14.5891 18.125 14.7549C18.125 14.9206 18.0592 15.0796 17.9419 15.1968C17.8247 15.314 17.6658 15.3799 17.5 15.3799H10.625V16.7377C11.042 16.8851 11.3935 17.1752 11.6173 17.5567C11.8411 17.9383 11.9228 18.3866 11.848 18.8225C11.7732 19.2585 11.5467 19.6539 11.2085 19.939C10.8704 20.2241 10.4423 20.3805 10 20.3805C9.5577 20.3805 9.12963 20.2241 8.79146 19.939C8.45329 19.6539 8.2268 19.2585 8.152 18.8225C8.07721 18.3866 8.15893 17.9383 8.38273 17.5567C8.60653 17.1752 8.95799 16.8851 9.375 16.7377V15.3799H2.5C2.33424 15.3799 2.17527 15.314 2.05806 15.1968C1.94085 15.0796 1.875 14.9206 1.875 14.7549C1.875 14.5891 1.94085 14.4302 2.05806 14.3129C2.17527 14.1957 2.33424 14.1299 2.5 14.1299H3.125V6.62988C2.79348 6.62988 2.47554 6.49819 2.24112 6.26377C2.0067 6.02935 1.875 5.7114 1.875 5.37988V4.12988C1.875 3.79836 2.0067 3.48042 2.24112 3.246C2.47554 3.01158 2.79348 2.87988 3.125 2.87988H16.875C17.2065 2.87988 17.5245 3.01158 17.7589 3.246C17.9933 3.48042 18.125 3.79836 18.125 4.12988V5.37988C18.125 5.7114 17.9933 6.02935 17.7589 6.26377C17.5245 6.49819 17.2065 6.62988 16.875 6.62988ZM10.625 18.5049C10.625 18.3813 10.5883 18.2604 10.5197 18.1577C10.451 18.0549 10.3534 17.9748 10.2392 17.9275C10.125 17.8802 9.99931 17.8678 9.87807 17.8919C9.75683 17.916 9.64547 17.9755 9.55806 18.0629C9.47065 18.1503 9.41112 18.2617 9.38701 18.383C9.36289 18.5042 9.37527 18.6299 9.42258 18.7441C9.46988 18.8583 9.54999 18.9559 9.65277 19.0246C9.75555 19.0932 9.87639 19.1299 10 19.1299C10.1658 19.1299 10.3247 19.064 10.4419 18.9468C10.5592 18.8296 10.625 18.6706 10.625 18.5049ZM3.125 5.37988H16.875V4.12988H3.125V5.37988ZM15.625 6.62988H4.375V14.1299H15.625V6.62988Z" fill="white"/>
</g>
</svg>
