<svg width="20" height="21" viewBox="0 0 20 21" fill="none" xmlns="http://www.w3.org/2000/svg">
<g id="TreeStructure">
<path id="Vector" d="M13.125 9.12988H16.875C17.2065 9.12988 17.5245 8.99819 17.7589 8.76377C17.9933 8.52935 18.125 8.2114 18.125 7.87988V4.12988C18.125 3.79836 17.9933 3.48042 17.7589 3.246C17.5245 3.01158 17.2065 2.87988 16.875 2.87988H13.125C12.7935 2.87988 12.4755 3.01158 12.2411 3.246C12.0067 3.48042 11.875 3.79836 11.875 4.12988V5.37988H11.25C10.587 5.37988 9.95107 5.64327 9.48223 6.11212C9.01339 6.58096 8.75 7.21684 8.75 7.87988V9.75488H6.25V9.12988C6.25 8.79836 6.1183 8.48042 5.88388 8.246C5.64946 8.01158 5.33152 7.87988 5 7.87988H2.5C2.16848 7.87988 1.85054 8.01158 1.61612 8.246C1.3817 8.48042 1.25 8.79836 1.25 9.12988V11.6299C1.25 11.9614 1.3817 12.2793 1.61612 12.5138C1.85054 12.7482 2.16848 12.8799 2.5 12.8799H5C5.33152 12.8799 5.64946 12.7482 5.88388 12.5138C6.1183 12.2793 6.25 11.9614 6.25 11.6299V11.0049H8.75V12.8799C8.75 13.5429 9.01339 14.1788 9.48223 14.6476C9.95107 15.1165 10.587 15.3799 11.25 15.3799H11.875V16.6299C11.875 16.9614 12.0067 17.2793 12.2411 17.5138C12.4755 17.7482 12.7935 17.8799 13.125 17.8799H16.875C17.2065 17.8799 17.5245 17.7482 17.7589 17.5138C17.9933 17.2793 18.125 16.9614 18.125 16.6299V12.8799C18.125 12.5484 17.9933 12.2304 17.7589 11.996C17.5245 11.7616 17.2065 11.6299 16.875 11.6299H13.125C12.7935 11.6299 12.4755 11.7616 12.2411 11.996C12.0067 12.2304 11.875 12.5484 11.875 12.8799V14.1299H11.25C10.9185 14.1299 10.6005 13.9982 10.3661 13.7638C10.1317 13.5293 10 13.2114 10 12.8799V7.87988C10 7.54836 10.1317 7.23042 10.3661 6.996C10.6005 6.76158 10.9185 6.62988 11.25 6.62988H11.875V7.87988C11.875 8.2114 12.0067 8.52935 12.2411 8.76377C12.4755 8.99819 12.7935 9.12988 13.125 9.12988ZM5 11.6299H2.5V9.12988H5V11.6299ZM13.125 12.8799H16.875V16.6299H13.125V12.8799ZM13.125 4.12988H16.875V7.87988H13.125V4.12988Z" fill="white"/>
</g>
</svg>
