<svg width="20" height="21" viewBox="0 0 20 21" fill="none" xmlns="http://www.w3.org/2000/svg">
<g id="UsersThree">
<path id="Vector" d="M19.1252 12.1299C19.0596 12.1792 18.9849 12.215 18.9053 12.2354C18.8258 12.2558 18.7431 12.2603 18.6618 12.2487C18.5806 12.2371 18.5024 12.2096 18.4318 12.1677C18.3612 12.1259 18.2995 12.0706 18.2502 12.0049C17.8735 11.4986 17.3832 11.0877 16.8187 10.8055C16.2542 10.5233 15.6313 10.3775 15.0002 10.3799C14.8773 10.3799 14.7572 10.3437 14.6547 10.2757C14.5523 10.2078 14.4722 10.1111 14.4245 9.99791C14.392 9.92101 14.3753 9.8384 14.3753 9.75494C14.3753 9.67148 14.392 9.58887 14.4245 9.51197C14.4722 9.39874 14.5523 9.3021 14.6547 9.23415C14.7572 9.1662 14.8773 9.12995 15.0002 9.12994C15.3509 9.12991 15.6946 9.03153 15.9921 8.84599C16.2897 8.66044 16.5293 8.39517 16.6836 8.08029C16.838 7.76541 16.901 7.41355 16.8654 7.06468C16.8298 6.71581 16.6971 6.38391 16.4823 6.10668C16.2676 5.82945 15.9794 5.618 15.6505 5.49636C15.3216 5.37472 14.9651 5.34775 14.6217 5.41852C14.2782 5.48929 13.9615 5.65497 13.7074 5.89673C13.4534 6.13849 13.2723 6.44665 13.1846 6.78619C13.1641 6.8657 13.1281 6.94039 13.0787 7.006C13.0293 7.07161 12.9675 7.12684 12.8968 7.16856C12.8261 7.21027 12.7478 7.23764 12.6665 7.24912C12.5852 7.26059 12.5024 7.25593 12.4229 7.23541C12.3434 7.21489 12.2687 7.17891 12.2031 7.12953C12.1375 7.08014 12.0822 7.01832 12.0405 6.94759C11.9988 6.87685 11.9714 6.7986 11.96 6.71729C11.9485 6.63598 11.9532 6.5532 11.9737 6.47369C12.0954 6.00284 12.3253 5.56689 12.6451 5.20053C12.9649 4.83416 13.3658 4.5475 13.8159 4.36334C14.266 4.17918 14.7529 4.10261 15.2378 4.13973C15.7227 4.17685 16.1922 4.32662 16.609 4.57714C17.0259 4.82765 17.3785 5.172 17.6388 5.58277C17.8991 5.99354 18.06 6.4594 18.1086 6.94328C18.1572 7.42717 18.0922 7.91571 17.9188 8.37006C17.7454 8.8244 17.4683 9.23199 17.1096 9.56041C17.9595 9.92838 18.6982 10.5123 19.2526 11.2542C19.3018 11.32 19.3376 11.3949 19.3578 11.4746C19.3781 11.5542 19.3824 11.6371 19.3706 11.7185C19.3588 11.7998 19.331 11.878 19.2889 11.9486C19.2468 12.0193 19.1912 12.0809 19.1252 12.1299ZM14.9159 16.9424C14.9611 17.0136 14.9914 17.0931 15.0051 17.1763C15.0188 17.2595 15.0155 17.3446 14.9955 17.4264C14.9754 17.5083 14.939 17.5853 14.8884 17.6527C14.8379 17.7201 14.7742 17.7767 14.7012 17.8188C14.6282 17.861 14.5475 17.888 14.4638 17.8982C14.3801 17.9083 14.2952 17.9015 14.2143 17.878C14.1333 17.8545 14.058 17.8149 13.9927 17.7615C13.9275 17.7081 13.8737 17.6421 13.8346 17.5674C13.4409 16.9008 12.8802 16.3483 12.2078 15.9645C11.5353 15.5807 10.7745 15.3788 10.0002 15.3788C9.22599 15.3788 8.46513 15.5807 7.79272 15.9645C7.1203 16.3483 6.55958 16.9008 6.16586 17.5674C6.12679 17.6421 6.07301 17.7081 6.00777 17.7615C5.94252 17.8149 5.86715 17.8545 5.7862 17.878C5.70524 17.9015 5.62037 17.9083 5.53669 17.8982C5.45302 17.888 5.37226 17.861 5.29928 17.8188C5.2263 17.7767 5.16261 17.7201 5.11204 17.6527C5.06147 17.5853 5.02506 17.5083 5.005 17.4264C4.98495 17.3446 4.98166 17.2595 4.99535 17.1763C5.00903 17.0931 5.03939 17.0136 5.08461 16.9424C5.69055 15.9013 6.61445 15.082 7.72055 14.6049C7.09815 14.1284 6.64073 13.4688 6.41258 12.7189C6.18443 11.9689 6.19703 11.1663 6.44861 10.4239C6.70018 9.68152 7.17808 9.03661 7.81513 8.57984C8.45219 8.12308 9.21636 7.87744 10.0002 7.87744C10.7841 7.87744 11.5483 8.12308 12.1853 8.57984C12.8224 9.03661 13.3003 9.68152 13.5519 10.4239C13.8034 11.1663 13.816 11.9689 13.5879 12.7189C13.3597 13.4688 12.9023 14.1284 12.2799 14.6049C13.386 15.082 14.3099 15.9013 14.9159 16.9424ZM10.0002 14.1299C10.4947 14.1299 10.978 13.9833 11.3892 13.7086C11.8003 13.4339 12.1207 13.0435 12.3099 12.5866C12.4992 12.1298 12.5487 11.6272 12.4522 11.1422C12.3557 10.6573 12.1176 10.2118 11.768 9.86217C11.4184 9.51254 10.9729 9.27444 10.488 9.17798C10.003 9.08151 9.50034 9.13102 9.04353 9.32024C8.58671 9.50946 8.19627 9.82989 7.92156 10.241C7.64686 10.6521 7.50024 11.1355 7.50024 11.6299C7.50024 12.293 7.76363 12.9289 8.23247 13.3977C8.70131 13.8665 9.3372 14.1299 10.0002 14.1299ZM5.62524 9.75494C5.62524 9.58918 5.55939 9.43021 5.44218 9.313C5.32497 9.19579 5.166 9.12994 5.00024 9.12994C4.64956 9.12991 4.30591 9.03153 4.00834 8.84599C3.71076 8.66044 3.47119 8.39517 3.31682 8.08029C3.16246 7.76541 3.09949 7.41355 3.13508 7.06468C3.17066 6.71581 3.30337 6.38391 3.51813 6.10668C3.73289 5.82945 4.02109 5.618 4.35 5.49636C4.67891 5.37472 5.03534 5.34775 5.3788 5.41852C5.72227 5.48929 6.039 5.65497 6.29303 5.89673C6.54706 6.13849 6.72819 6.44665 6.81586 6.78619C6.8573 6.94677 6.96083 7.08431 7.10368 7.16856C7.24653 7.2528 7.417 7.27685 7.57758 7.23541C7.73816 7.19397 7.8757 7.09044 7.95995 6.94759C8.04419 6.80474 8.06824 6.63427 8.0268 6.47369C7.90511 6.00284 7.67522 5.56689 7.3554 5.20053C7.03559 4.83416 6.63468 4.5475 6.18458 4.36334C5.73447 4.17918 5.2476 4.10261 4.7627 4.13973C4.2778 4.17685 3.80826 4.32662 3.39143 4.57714C2.9746 4.82765 2.62199 5.172 2.36166 5.58277C2.10133 5.99354 1.94046 6.4594 1.89185 6.94328C1.84325 7.42717 1.90825 7.91571 2.08168 8.37006C2.25511 8.8244 2.53219 9.23199 2.89086 9.56041C2.04186 9.92872 1.30392 10.5126 0.750237 11.2542C0.650677 11.3868 0.607874 11.5535 0.631242 11.7177C0.654611 11.8818 0.742238 12.03 0.874846 12.1296C1.00745 12.2291 1.17418 12.2719 1.33835 12.2485C1.50252 12.2252 1.65068 12.1375 1.75024 12.0049C2.12695 11.4986 2.61728 11.0877 3.18177 10.8055C3.74625 10.5233 4.36912 10.3775 5.00024 10.3799C5.166 10.3799 5.32497 10.3141 5.44218 10.1969C5.55939 10.0797 5.62524 9.9207 5.62524 9.75494Z" fill="white"/>
</g>
</svg>
