<?xml version="1.0" encoding="UTF-8"?>
<svg id="_Слой_1" data-name="Слой_1" xmlns="http://www.w3.org/2000/svg" viewBox="0 0 17 17">
  <defs>
    <style>
      .cls-1 {
        fill: #fff;
        fill-rule: evenodd;
      }
    </style>
  </defs>
  <path class="cls-1" d="M16.83,8.47c0,4.6-3.73,8.33-8.33,8.33S.17,13.07.17,8.47,3.9.14,8.5.14s8.33,3.73,8.33,8.33ZM8.8,6.29c-.81.34-2.43,1.04-4.86,2.09-.39.16-.6.31-.62.46-.03.25.29.35.72.49l.18.06c.42.14,1,.3,1.3.31.27,0,.57-.11.9-.33,2.27-1.53,3.44-2.31,3.51-2.32.05-.01.12-.03.17.02.05.04.04.12.04.15-.03.13-1.28,1.29-1.92,1.89-.2.19-.34.32-.37.35-.06.07-.13.13-.2.19-.39.38-.69.67.02,1.13.34.23.61.41.88.6.3.2.59.4.97.65.1.06.19.13.28.2.35.25.66.47,1.04.43.22-.02.45-.23.57-.85.28-1.47.82-4.67.94-5.99,0-.11,0-.22-.01-.33,0-.09-.05-.17-.12-.22-.1-.08-.25-.1-.32-.1-.31,0-.79.17-3.11,1.13h0Z"/>
</svg>