<?xml version="1.0" encoding="UTF-8"?>
<svg id="_Слой_1" data-name="Слой_1" xmlns="http://www.w3.org/2000/svg" viewBox="0 0 17 17">
  <defs>
    <style>
      .cls-1 {
        fill: #fff;
        fill-rule: evenodd;
      }
    </style>
  </defs>
  <path class="cls-1" d="M1.34,1.31C.17,2.48.17,4.37.17,8.14v.67c0,3.77,0,5.65,1.17,6.83,1.17,1.17,3.06,1.17,6.83,1.17h.67c3.77,0,5.65,0,6.83-1.17s1.17-3.06,1.17-6.83v-.67c0-3.77,0-5.65-1.17-6.83C14.49.14,12.6.14,8.83.14h-.67C4.4.14,2.51.14,1.34,1.31ZM2.98,5.21c.09,4.33,2.26,6.93,6.05,6.93h.22v-2.48c1.4.14,2.45,1.16,2.87,2.48h1.97c-.54-1.97-1.96-3.06-2.85-3.48.89-.51,2.14-1.76,2.44-3.46h-1.79c-.39,1.37-1.54,2.62-2.64,2.74v-2.74h-1.79v4.8c-1.11-.28-2.51-1.62-2.58-4.8h-1.9Z"/>
</svg>